<?xml version="1.0" encoding="UTF-8" standalone="no"?>
<!-- Created with Inkscape (http://www.inkscape.org/) -->

<svg
   xmlns:dc="http://purl.org/dc/elements/1.1/"
   xmlns:cc="http://creativecommons.org/ns#"
   xmlns:rdf="http://www.w3.org/1999/02/22-rdf-syntax-ns#"
   xmlns:svg="http://www.w3.org/2000/svg"
   xmlns="http://www.w3.org/2000/svg"
   xmlns:sodipodi="http://sodipodi.sourceforge.net/DTD/sodipodi-0.dtd"
   xmlns:inkscape="http://www.inkscape.org/namespaces/inkscape"
   version="1.1"
   id="svg64"
   width="300"
   height="350"
   viewBox="0 0 300 349.99999"
   sodipodi:docname="AraraDS2.svg"
   inkscape:version="0.92.1 r"
   inkscape:export-filename="/home/toti/Documentos/arara/Misc/AraraDS2.png"
   inkscape:export-xdpi="640"
   inkscape:export-ydpi="640">
  <metadata
     id="metadata70">
    <rdf:RDF>
      <cc:Work
         rdf:about="">
        <dc:format>image/svg+xml</dc:format>
        <dc:type
           rdf:resource="http://purl.org/dc/dcmitype/StillImage" />
        <dc:title></dc:title>
      </cc:Work>
    </rdf:RDF>
  </metadata>
  <defs
     id="defs68">
    <clipPath
       id="clipPath3371"
       clipPathUnits="userSpaceOnUse">
      <path
         inkscape:connector-curvature="0"
         id="path3373"
         d="M 0,0 H 1190.55 V 841.89 H 0 Z" />
    </clipPath>
    <clipPath
       id="clipPath3377"
       clipPathUnits="userSpaceOnUse">
      <path
         inkscape:connector-curvature="0"
         id="path3379"
         d="m 186,324 h 819 V 543 H 186 Z" />
    </clipPath>
    <clipPath
       id="clipPath3381"
       clipPathUnits="userSpaceOnUse">
      <path
         inkscape:connector-curvature="0"
         id="path3383"
         d="M 421.229,431.23 V 325.229 h 48.395 V 431.23 c 0,52.9 37.063,97.086 86.631,108.153 v 0 c -7.791,1.732 -15.904,2.674 -24.207,2.674 v 0 c -61.205,0 -110.819,-49.615 -110.819,-110.827" />
    </clipPath>
    <clipPath
       id="clipPath3385"
       clipPathUnits="userSpaceOnUse">
      <path
         inkscape:connector-curvature="0"
         id="path3387"
         d="M 0,0 H 1191 V 842 H 0 Z" />
    </clipPath>
    <linearGradient
       id="linearGradient3389"
       spreadMethod="pad"
       gradientTransform="matrix(-9.5e-6,216.8276,216.8276,9.5e-6,488.7417,325.2295)"
       gradientUnits="userSpaceOnUse"
       y2="0"
       x2="1"
       y1="0"
       x1="0">
      <stop
         id="stop3391"
         offset="0"
         style="stop-opacity:1;stop-color:#3974b5" />
      <stop
         id="stop3393"
         offset="1"
         style="stop-opacity:1;stop-color:#87d5b6" />
    </linearGradient>
    <clipPath
       id="clipPath3395"
       clipPathUnits="userSpaceOnUse">
      <path
         inkscape:connector-curvature="0"
         id="path3397"
         d="m 484.394,433.039 c 0,-60.194 48.787,-109 108.981,-109 v 0 c 60.204,0 108.999,48.806 108.999,109 v 0 c 0,60.213 -48.795,109.009 -108.999,109.009 v 0 c -60.194,0 -108.981,-48.796 -108.981,-109.009 m 34.101,0 c 0,41.367 33.531,74.898 74.88,74.898 v 0 c 41.367,0 74.869,-33.531 74.869,-74.898 v 0 c 0,-41.347 -33.502,-74.871 -74.869,-74.871 v 0 c -41.349,0 -74.88,33.524 -74.88,74.871" />
    </clipPath>
    <clipPath
       id="clipPath3399"
       clipPathUnits="userSpaceOnUse">
      <path
         inkscape:connector-curvature="0"
         id="path3401"
         d="M 0,0 H 1191 V 842 H 0 Z" />
    </clipPath>
    <linearGradient
       id="linearGradient3403"
       spreadMethod="pad"
       gradientTransform="matrix(-9.5e-6,218.0088,218.0088,9.5e-6,593.3843,324.0391)"
       gradientUnits="userSpaceOnUse"
       y2="0"
       x2="1"
       y1="0"
       x1="0">
      <stop
         id="stop3405"
         offset="0"
         style="stop-opacity:1;stop-color:#e9e9e9" />
      <stop
         id="stop3407"
         offset="1"
         style="stop-opacity:1;stop-color:#918f90" />
    </linearGradient>
    <clipPath
       id="clipPath3409"
       clipPathUnits="userSpaceOnUse">
      <path
         inkscape:connector-curvature="0"
         id="path3411"
         d="M 720.021,431.23 V 325.229 h 48.424 V 431.23 c 0,52.881 37.054,97.086 86.602,108.134 v 0 c -7.781,1.741 -15.884,2.693 -24.198,2.693 v 0 c -61.204,0 -110.828,-49.624 -110.828,-110.827" />
    </clipPath>
    <clipPath
       id="clipPath3413"
       clipPathUnits="userSpaceOnUse">
      <path
         inkscape:connector-curvature="0"
         id="path3415"
         d="M 0,0 H 1191 V 842 H 0 Z" />
    </clipPath>
    <linearGradient
       id="linearGradient3417"
       spreadMethod="pad"
       gradientTransform="matrix(-9.5e-6,216.8276,216.8276,9.5e-6,787.5332,325.2295)"
       gradientUnits="userSpaceOnUse"
       y2="0"
       x2="1"
       y1="0"
       x1="0">
      <stop
         id="stop3419"
         offset="0"
         style="stop-opacity:1;stop-color:#3974b5" />
      <stop
         id="stop3421"
         offset="1"
         style="stop-opacity:1;stop-color:#87d5b6" />
    </linearGradient>
    <clipPath
       id="clipPath3423"
       clipPathUnits="userSpaceOnUse">
      <path
         inkscape:connector-curvature="0"
         id="path3425"
         d="M 0,841.89 H 1190.55 V 0 H 0 Z" />
    </clipPath>
    <clipPath
       id="clipPath3427"
       clipPathUnits="userSpaceOnUse">
      <path
         inkscape:connector-curvature="0"
         id="path3429"
         d="M 0,0 H 1191 V 842 H 0 Z" />
    </clipPath>
    <clipPath
       id="clipPath3431"
       clipPathUnits="userSpaceOnUse">
      <path
         inkscape:connector-curvature="0"
         id="path3433"
         d="M 566,330 H 702 V 540 H 566 Z" />
    </clipPath>
    <clipPath
       id="clipPath3435"
       clipPathUnits="userSpaceOnUse">
      <path
         inkscape:connector-curvature="0"
         id="path3437"
         d="M 566.301,330.371 H 701.327 V 539.336 H 566.301 Z" />
    </clipPath>
    <clipPath
       id="clipPath3439"
       clipPathUnits="userSpaceOnUse">
      <path
         inkscape:connector-curvature="0"
         id="path3441"
         d="m 784.805,433.039 c 0,-60.194 48.797,-109 108.989,-109 v 0 c 60.215,0 109.001,48.806 109.001,109 v 0 c 0,60.203 -48.786,109.009 -109.001,109.009 v 0 c -60.192,0 -108.989,-48.806 -108.989,-109.009 m 34.111,0 c 0,41.367 33.532,74.898 74.878,74.898 v 0 c 41.368,0 74.872,-33.531 74.872,-74.898 v 0 c 0,-41.347 -33.504,-74.879 -74.872,-74.879 v 0 c -41.346,0 -74.878,33.532 -74.878,74.879" />
    </clipPath>
    <clipPath
       id="clipPath3443"
       clipPathUnits="userSpaceOnUse">
      <path
         inkscape:connector-curvature="0"
         id="path3445"
         d="M 0,0 H 1191 V 842 H 0 Z" />
    </clipPath>
    <linearGradient
       id="linearGradient3447"
       spreadMethod="pad"
       gradientTransform="matrix(-9.5e-6,218.0088,218.0088,9.5e-6,893.7998,324.0391)"
       gradientUnits="userSpaceOnUse"
       y2="0"
       x2="1"
       y1="0"
       x1="0">
      <stop
         id="stop3449"
         offset="0"
         style="stop-opacity:1;stop-color:#e9e9e9" />
      <stop
         id="stop3451"
         offset="1"
         style="stop-opacity:1;stop-color:#918f90" />
    </linearGradient>
    <clipPath
       id="clipPath3453"
       clipPathUnits="userSpaceOnUse">
      <path
         inkscape:connector-curvature="0"
         id="path3455"
         d="m 569.49,539.354 c 49.569,-11.038 86.602,-55.243 86.602,-108.124 v 0 -106.01 h 48.424 v 106.01 c 0,61.203 -49.615,110.827 -110.817,110.827 v 0 c -8.314,0 -16.427,-0.942 -24.209,-2.703" />
    </clipPath>
    <clipPath
       id="clipPath3457"
       clipPathUnits="userSpaceOnUse">
      <path
         inkscape:connector-curvature="0"
         id="path3459"
         d="M 0,0 H 1191 V 842 H 0 Z" />
    </clipPath>
    <linearGradient
       id="linearGradient3461"
       spreadMethod="pad"
       gradientTransform="matrix(-9.5e-6,216.8364,216.8364,9.5e-6,637.0039,325.2207)"
       gradientUnits="userSpaceOnUse"
       y2="0"
       x2="1"
       y1="0"
       x1="0">
      <stop
         id="stop3463"
         offset="0"
         style="stop-opacity:1;stop-color:#3974b5" />
      <stop
         id="stop3465"
         offset="1"
         style="stop-opacity:1;stop-color:#87d5b6" />
    </linearGradient>
    <clipPath
       id="clipPath3467"
       clipPathUnits="userSpaceOnUse">
      <path
         inkscape:connector-curvature="0"
         id="path3469"
         d="M 0,841.89 H 1190.55 V 0 H 0 Z" />
    </clipPath>
    <clipPath
       id="clipPath3471"
       clipPathUnits="userSpaceOnUse">
      <path
         inkscape:connector-curvature="0"
         id="path3473"
         d="M 0,0 H 1191 V 842 H 0 Z" />
    </clipPath>
    <clipPath
       id="clipPath3475"
       clipPathUnits="userSpaceOnUse">
      <path
         inkscape:connector-curvature="0"
         id="path3477"
         d="m 866,330 h 136 V 540 H 866 Z" />
    </clipPath>
    <clipPath
       id="clipPath3479"
       clipPathUnits="userSpaceOnUse">
      <path
         inkscape:connector-curvature="0"
         id="path3481"
         d="M 866.169,330.371 H 1001.2 V 539.336 H 866.169 Z" />
    </clipPath>
    <clipPath
       id="clipPath3483"
       clipPathUnits="userSpaceOnUse">
      <path
         inkscape:connector-curvature="0"
         id="path3485"
         d="m 869.35,539.364 c 49.547,-11.038 86.601,-55.253 86.601,-108.124 v 0 -106.011 h 48.425 V 431.24 c 0,61.193 -49.625,110.827 -110.828,110.827 v 0 c -8.303,0 -16.4,-0.952 -24.198,-2.703" />
    </clipPath>
    <clipPath
       id="clipPath3487"
       clipPathUnits="userSpaceOnUse">
      <path
         inkscape:connector-curvature="0"
         id="path3489"
         d="M 0,0 H 1191 V 842 H 0 Z" />
    </clipPath>
    <linearGradient
       id="linearGradient3491"
       spreadMethod="pad"
       gradientTransform="matrix(-9.5e-6,216.8374,216.8374,9.5e-6,936.8633,325.2295)"
       gradientUnits="userSpaceOnUse"
       y2="0"
       x2="1"
       y1="0"
       x1="0">
      <stop
         id="stop3493"
         offset="0"
         style="stop-opacity:1;stop-color:#3974b5" />
      <stop
         id="stop3495"
         offset="1"
         style="stop-opacity:1;stop-color:#87d5b6" />
    </linearGradient>
    <clipPath
       id="clipPath3497"
       clipPathUnits="userSpaceOnUse">
      <path
         inkscape:connector-curvature="0"
         id="path3499"
         d="m 186.173,433.048 c 0,-60.203 48.815,-108.999 109,-108.999 v 0 c 60.194,0 108.99,48.796 108.99,108.999 v 0 c 0,60.204 -48.796,109.009 -108.99,109.009 v 0 c -60.185,0 -109,-48.805 -109,-109.009 m 34.11,0 c 0,41.358 33.522,74.889 74.89,74.889 v 0 c 41.349,0 74.869,-33.531 74.869,-74.889 v 0 c 0,-41.356 -33.52,-74.88 -74.869,-74.88 v 0 c -41.368,0 -74.89,33.524 -74.89,74.88" />
    </clipPath>
    <clipPath
       id="clipPath3501"
       clipPathUnits="userSpaceOnUse">
      <path
         inkscape:connector-curvature="0"
         id="path3503"
         d="M 0,0 H 1191 V 842 H 0 Z" />
    </clipPath>
    <linearGradient
       id="linearGradient3505"
       spreadMethod="pad"
       gradientTransform="matrix(-9.5e-6,218.0083,218.0083,9.5e-6,295.168,324.0488)"
       gradientUnits="userSpaceOnUse"
       y2="0"
       x2="1"
       y1="0"
       x1="0">
      <stop
         id="stop3507"
         offset="0"
         style="stop-opacity:1;stop-color:#e9e9e9" />
      <stop
         id="stop3509"
         offset="1"
         style="stop-opacity:1;stop-color:#918f90" />
    </linearGradient>
    <clipPath
       id="clipPath3511"
       clipPathUnits="userSpaceOnUse">
      <path
         inkscape:connector-curvature="0"
         id="path3513"
         d="M 0,841.89 H 1190.55 V 0 H 0 Z" />
    </clipPath>
    <clipPath
       id="clipPath3515"
       clipPathUnits="userSpaceOnUse">
      <path
         inkscape:connector-curvature="0"
         id="path3517"
         d="M 0,0 H 1191 V 842 H 0 Z" />
    </clipPath>
    <clipPath
       id="clipPath3519"
       clipPathUnits="userSpaceOnUse">
      <path
         inkscape:connector-curvature="0"
         id="path3521"
         d="M 0,841.89 H 1190.55 V 0 H 0 Z" />
    </clipPath>
    <clipPath
       id="clipPath3523"
       clipPathUnits="userSpaceOnUse">
      <path
         inkscape:connector-curvature="0"
         id="path3525"
         d="M 0,0 H 1191 V 842 H 0 Z" />
    </clipPath>
    <clipPath
       id="clipPath3527"
       clipPathUnits="userSpaceOnUse">
      <path
         inkscape:connector-curvature="0"
         id="path3529"
         d="M 267,330 H 403 V 540 H 267 Z" />
    </clipPath>
    <clipPath
       id="clipPath3531"
       clipPathUnits="userSpaceOnUse">
      <path
         inkscape:connector-curvature="0"
         id="path3533"
         d="M 267.271,330.371 H 402.297 V 539.336 H 267.271 Z" />
    </clipPath>
    <clipPath
       id="clipPath3535"
       clipPathUnits="userSpaceOnUse">
      <path
         inkscape:connector-curvature="0"
         id="path3537"
         d="m 270.441,539.364 c 49.567,-11.038 86.602,-55.253 86.602,-108.124 v 0 -106.011 h 48.425 V 431.24 c 0,61.193 -49.615,110.827 -110.809,110.827 v 0 c -8.324,0 -16.409,-0.952 -24.218,-2.703" />
    </clipPath>
    <clipPath
       id="clipPath3539"
       clipPathUnits="userSpaceOnUse">
      <path
         inkscape:connector-curvature="0"
         id="path3541"
         d="M 0,0 H 1191 V 842 H 0 Z" />
    </clipPath>
    <linearGradient
       id="linearGradient3543"
       spreadMethod="pad"
       gradientTransform="matrix(-9.5e-6,216.8374,216.8374,9.5e-6,337.9546,325.2295)"
       gradientUnits="userSpaceOnUse"
       y2="0"
       x2="1"
       y1="0"
       x1="0">
      <stop
         id="stop3545"
         offset="0"
         style="stop-opacity:1;stop-color:#3974b5" />
      <stop
         id="stop3547"
         offset="1"
         style="stop-opacity:1;stop-color:#87d5b6" />
    </linearGradient>
  </defs>
  <sodipodi:namedview
     pagecolor="#ffffff"
     bordercolor="#666666"
     borderopacity="1"
     objecttolerance="10"
     gridtolerance="10"
     guidetolerance="10"
     inkscape:pageopacity="0"
     inkscape:pageshadow="2"
     inkscape:window-width="1600"
     inkscape:window-height="900"
     id="namedview66"
     showgrid="false"
     inkscape:zoom="1.347147"
     inkscape:cx="79.277123"
     inkscape:cy="185.68057"
     inkscape:window-x="0"
     inkscape:window-y="0"
     inkscape:window-maximized="0"
     inkscape:current-layer="g167"
     showguides="false" />
  <g
     id="g167"
     transform="translate(0,167.60001)">
    <path
       style="fill:#f9691f;stroke-width:0.9275471"
       d="m 148.46213,27.319114 c -2.40812,0.164103 -6.26056,-0.447716 -9.1061,-1.446191 -2.71266,-0.951852 -6.40145,-3.141791 -8.1973,-4.866536 -1.79587,-1.724745 -4.09908,-4.754403 -5.11825,-6.732557 -1.01918,-1.978168 -2.07859,-5.7820102 -2.35426,-8.4529692 -0.34382,-3.331343 0.0144,-6.40829303 1.14036,-9.798637 1.10134,-3.315807 3.0476,-6.3457698 5.91385,-9.2067308 3.11306,-3.107326 5.77107,-4.73465 9.79613,-5.997549 4.86793,-1.527336 6.18964,-1.597395 11.13057,-0.590021 4.10104,0.83614 6.7276,2.081068 9.78066,4.635866 2.29568,1.921008 5.21745,5.3333238 6.49283,7.5829298 1.90962,3.368315 2.31622,5.317946 2.30383,11.046781 -0.0102,4.989117 -0.52481,7.9931382 -1.81746,10.6215452 -0.99133,2.01572 -3.07154,4.861304 -4.62271,6.323509 -1.55113,1.462192 -4.69855,3.544491 -6.99422,4.627316 -2.29568,1.082824 -6.05226,2.096778 -8.34793,2.253244 z m -0.28772,-7.381203 c 3.16878,-0.234133 6.05121,-1.174579 8.43485,-2.751989 1.99158,-1.317972 4.38647,-3.998786 5.32196,-5.957374 0.9355,-1.9585892 1.67602,-5.4792102 1.64563,-7.8235992 -0.0304,-2.34439 -0.57197,-5.266163 -1.20347,-6.49283 -0.6315,-1.226667 -2.43998,-3.594912 -4.01886,-5.262757 -1.57886,-1.6678458 -4.52523,-3.4779828 -6.54747,-4.0225108 -2.02223,-0.544529 -5.49802,-0.716951 -7.72396,-0.38315 -2.58661,0.387889 -5.22172,1.638179 -7.30182,3.4645338 -1.79007,1.571699 -3.85944,4.027134 -4.5986,5.456513 -0.73917,1.429393 -1.34394,4.77428797 -1.34394,7.433087 0,3.468939 0.64785,5.939664 2.29394,8.7484942 1.47232,2.512348 3.71476,4.636533 6.26094,5.930794 2.98553,1.517598 5.15798,1.928487 8.7808,1.660788 z m -44.23455,-52.714445 c -2.80583,-0.03023 -6.16692,-0.542811 -7.469096,-1.139066 -1.302174,-0.596255 -3.40189,-1.918891 -4.666033,-2.939192 -1.264144,-1.020302 -3.48144,-3.41817 -4.927324,-5.328592 -2.042422,-2.698614 -2.734524,-4.789611 -3.102449,-9.373169 -0.287274,-3.578829 -0.0075,-7.320767 0.710913,-9.512161 0.651465,-1.986871 2.206329,-4.958724 3.455252,-6.604108 1.248925,-1.645395 4.539107,-4.101418 7.311518,-5.457835 4.323003,-2.115048 5.870079,-2.399639 10.865209,-1.99867 4.08595,0.32798 6.9642,1.187001 9.64278,2.87791 2.10005,1.325715 5.18154,4.391795 6.84773,6.813528 2.64083,3.838321 3.03582,5.180602 3.07915,10.464058 0.0338,4.113773 -0.51535,7.252871 -1.70916,9.771114 -0.96738,2.040604 -2.98305,4.89322 -4.47925,6.339155 -1.4962,1.445934 -4.46127,3.419392 -6.58905,4.385479 -2.37527,1.078459 -5.83798,1.735292 -8.97019,1.701549 z m 3.63841,-7.435117 c 1.74604,-0.381675 4.25042,-1.481784 5.56528,-2.44467 1.31486,-0.962896 3.14421,-3.181932 4.06523,-4.931193 1.17063,-2.223358 1.55852,-4.527162 1.28894,-7.655426 -0.21473,-2.491929 -1.20528,-5.57466 -2.2353,-6.956603 -1.01733,-1.364914 -3.21591,-3.281671 -4.88575,-4.259464 -1.70083,-0.995934 -4.76752,-1.777791 -6.97304,-1.777791 -2.20079,0 -5.318589,0.793349 -7.069979,1.799013 -1.818242,1.044058 -4.008842,3.526906 -5.220012,5.916416 -1.14784,2.26456 -2.077815,5.176789 -2.06661,6.471607 0.01116,1.294818 0.811021,4.095612 1.777371,6.22398 0.966349,2.128377 2.845921,4.583261 4.176825,5.455303 1.330904,0.872033 3.765906,1.870658 5.411115,2.219157 1.64521,0.348498 4.41988,0.321348 6.16593,-0.06029 z m 69.02926,0.577065 c -3.49141,0.205302 -8.10292,6.3e-4 -10.24775,-0.454842 -2.14486,-0.455472 -6.12466,-2.251407 -8.84404,-3.990957 -2.71936,-1.739558 -6.08145,-4.514268 -7.47131,-6.166025 -1.38987,-1.651759 -3.54265,-4.740518 -4.78397,-6.863906 -1.24131,-2.123385 -2.67514,-6.469426 -3.18629,-9.657869 -0.62066,-3.871675 -0.62075,-7.71338 -2.4e-4,-11.566364 0.51101,-3.173065 1.96381,-7.670302 3.22845,-9.993867 1.26465,-2.323565 3.57609,-5.590772 5.13655,-7.260463 1.56047,-1.669691 4.36278,-3.994635 6.22737,-5.166541 1.8646,-1.17191 5.63536,-2.87313 8.37949,-3.78048 3.62346,-1.19812 6.79744,-1.53157 11.59434,-1.21806 4.61259,0.30147 8.2347,1.20553 12.00757,2.99702 2.9714,1.41093 6.84204,4.004805 8.6014,5.764166 1.75936,1.759363 4.20283,4.74045 5.42994,6.62464 1.2271,1.884189 2.93817,5.900032 3.80237,8.924094 1.06399,3.723249 1.42058,7.375308 1.10455,11.312457 -0.30282,3.772353 -1.44535,7.867566 -3.25342,11.661327 -1.53268,3.215935 -4.39998,7.47857 -6.37177,9.472518 -1.97178,1.993948 -6.15458,4.832371 -9.29512,6.307607 -4.03082,1.89344 -7.57693,2.792029 -12.05812,3.055545 z m -2.09034,-6.968514 c 4.9612,0.0074 7.17245,-0.520455 11.73756,-2.801664 3.13186,-1.565013 6.71793,-4.243946 8.0913,-6.044518 1.35658,-1.778581 3.32693,-5.178904 4.37856,-7.556272 1.24727,-2.819668 1.9117,-6.281005 1.91106,-9.955678 -6.7e-4,-3.813832 -0.63937,-6.99044 -1.97757,-9.835619 -1.08713,-2.311343 -3.23434,-5.728329 -4.77162,-7.593306 -1.53728,-1.864976 -5.15773,-4.54682 -8.04546,-5.959656 -4.15512,-2.032913 -6.52151,-2.561538 -11.34352,-2.534025 -4.44952,0.02539 -7.33124,0.62821 -10.68313,2.234781 -2.52452,1.21001 -6.15858,3.816294 -8.07569,5.791747 -1.91711,1.97545 -4.3386,5.871447 -5.3811,8.657769 -1.0425,2.786323 -1.89545,7.063008 -1.89545,9.503745 0,2.440748 0.65744,6.367194 1.46097,8.725455 0.80355,2.35826 3.18767,6.249357 5.29807,8.64689 2.1464,2.438437 5.8961,5.317952 8.51016,6.535219 3.40398,1.585102 6.33316,2.178538 10.78586,2.185132 z"
       id="path173"
       inkscape:connector-curvature="0" />
    <path
       style="fill:#55648f;stroke-width:0.9275471"
       d="m 183.52309,77.638475 c -1.17317,-0.0323 -2.96783,-0.40409 -3.98813,-0.82611 -1.0203,-0.42202 -2.89858,-1.89008 -4.17396,-3.26234 -1.71178,-1.84184 -2.31887,-3.51819 -2.31887,-6.40317 0,-2.17646 0.72731,-5.018158 1.64143,-6.413276 0.90277,-1.377814 3.04315,-3.090805 4.75638,-3.806639 1.71324,-0.715835 3.33214,-1.65715 3.59758,-2.091822 0.26543,-0.434657 0.77826,-3.568955 1.13961,-6.965096 0.62773,-5.89978 0.55379,-6.242436 -1.66027,-7.693134 -2.21589,-1.451901 -2.587,-1.385306 -8.4836,1.522438 -4.38437,2.162026 -6.28973,3.648087 -6.59327,5.142379 -0.2348,1.155884 -0.66022,3.211444 -0.94536,4.567895 -0.28515,1.356465 -1.8756,3.82345 -3.53433,5.482194 -1.65874,1.65873 -4.66026,3.454418 -6.67005,3.990395 -2.31455,0.617268 -4.98551,0.670863 -7.28579,0.146205 -2.15045,-0.490484 -4.96902,-2.165692 -6.91071,-4.107396 -2.94254,-2.942528 -3.31275,-3.877162 -3.60722,-9.106672 -0.26283,-4.667693 0.0528,-6.434844 1.58572,-8.87838 1.05263,-1.677933 3.37096,-3.910481 5.15186,-4.961247 2.26958,-1.339088 3.23802,-2.57661 3.23802,-4.13773 0,-1.224985 0.41739,-2.289853 0.92754,-2.366375 0.51015,-0.07652 1.43047,-0.180872 2.04517,-0.231887 0.61469,-0.05102 1.34877,0.886445 1.6313,2.083242 0.35679,1.511423 1.64435,2.561016 4.21578,3.43662 2.06798,0.704168 4.97482,2.765003 6.58544,4.668808 l 2.88336,3.4082 5.92833,-3.134631 c 5.69343,-3.010398 5.93945,-3.286502 6.20824,-6.967459 0.27381,-3.749508 0.14774,-3.929887 -5.79717,-8.294938 -3.34238,-2.454145 -6.07705,-4.983044 -6.07705,-5.619762 0,-0.636732 0.42641,-1.421219 0.94758,-1.743325 0.52118,-0.322105 3.66513,1.353553 6.98656,3.723696 l 6.03898,4.309312 4.13115,-1.99985 c 2.81317,-1.361827 4.98654,-1.811992 6.8123,-1.410973 1.47463,0.323874 4.04708,1.596628 5.71656,2.828338 1.6695,1.23171 3.49488,1.961936 4.05644,1.622729 0.56154,-0.339207 3.00363,-2.034082 5.42685,-3.766392 2.42321,-1.732296 4.40585,-3.548607 4.40585,-4.036236 0,-0.487629 -0.63369,-2.11201 -1.40819,-3.609738 -0.77451,-1.497728 -2.33974,-2.9129042 -3.47831,-3.1448202 -1.13856,-0.23193 -7.91365,-0.871966 -15.05577,-1.422292 -7.14211,-0.550325 -14.75898,-1.097056 -16.92637,-1.214956 -3.40433,-0.185176 -3.9409,-0.498426 -3.94208,-2.301346 -7.5e-4,-1.147839 0.31585,-2.086981 0.70353,-2.086981 0.38769,0 8.59638,0.640109 18.24154,1.422466 10.65018,0.86388 17.87109,1.088013 18.38834,0.570761 0.46846,-0.468441 0.71204,-1.838993 0.5413,-3.045674 -0.26306,-1.85935503 -3.91773,-3.985887 -23.96286,-13.9432788 -13.00885,-6.462134 -24.13337,-11.783936 -24.72115,-11.826226 -0.58779,-0.04232 -1.51656,1.207869 -2.06398,2.778177 -0.70195,2.013589 -1.48049,2.749149 -2.64151,2.495667 -0.9054,-0.197683 -1.47954,-0.960721 -1.27585,-1.695657 0.20368,-0.734922 0.56303,-2.476797 0.79856,-3.870828 0.41495,-2.45601 -0.0541,-2.76544 -15.1247,-9.980235 -8.5541,-4.095102 -15.74963,-7.248929 -15.99005,-7.0085 -0.24043,0.240429 2.85116,4.443406 6.87021,9.339955 4.01903,4.896538 7.90271,9.746891 8.63038,10.778556 1.1457,1.624308 1.1457,1.987863 0,2.712191 -0.72767,0.460049 -1.59047,0.738878 -1.91732,0.61963 -0.32685,-0.119276 -3.83564,-4.182078 -7.79731,-9.028504 -3.96168,-4.846434 -7.78367,-9.492537 -8.49331,-10.324667 -1.10683,-1.29787 -1.08672,-1.716491 0.14145,-2.944665 0.78744,-0.787441 1.84289,-2.51318 2.34543,-3.834971 l 0.91371,-2.403256 14.16253,6.998232 c 7.78939,3.849032 14.92568,7.427397 15.85842,7.951934 1.17445,0.66047 2.0658,0.646715 2.89892,-0.04471 0.66166,-0.549137 1.7267,-2.868775 2.36672,-5.154761 0.87865,-3.13817 1.61512,-4.156339 3.00645,-4.156339 1.31524,0 1.70849,0.464638 1.37379,1.623208 -0.2579,0.892764 -1.01566,3.592428 -1.6839,5.999246 -0.66824,2.406816 -1.02765,4.5565 -0.79869,4.77708 0.22897,0.220571 10.98422,5.660131 23.90054,12.087932 12.91634,6.427771 24.03215,11.6868608 24.7018,11.6868608 0.66966,0 2.35466,-1.490843 3.74449,-3.312995 l 2.52696,-3.3130098 -11.18942,-16.813266 c -8.64889,-12.995835 -10.9561,-17.094396 -10.1618,-18.051467 0.56519,-0.681013 1.3754,-1.119958 1.80048,-0.975427 0.42508,0.144523 5.68423,7.567207 11.68701,16.494849 6.00278,8.927638 11.59208,16.356914 12.42065,16.509495 0.82858,0.152582 1.72924,-0.303032 2.00148,-1.012475 0.27224,-0.709458 -1.46456,-13.067877 -3.85956,-27.463157 -3.03196,-18.223712 -4.76675,-26.433942 -5.71167,-27.031607 -0.74642,-0.472102 -2.29626,-0.864771 -3.4441,-0.87258 -1.62725,-0.01101 -2.08698,-0.54717 -2.08698,-2.433624 0,-2.123164 0.28644,-2.347529 2.33923,-1.832304 1.60539,0.402927 2.50152,0.164203 2.85654,-0.760951 0.28451,-0.741435 -0.7906,-8.995265 -2.38916,-18.341843 -1.59855,-9.346574 -3.19705,-17.278494 -3.5522,-17.626474 -0.35515,-0.34799 -1.89792,-0.76538 -3.42837,-0.92755 -2.58699,-0.27412 -3.01091,0.14519 -6.02906,5.96357 -1.78553,3.44212 -3.68468,6.25955 -4.22034,6.26094 -0.53566,0.001 -1.41439,-0.43794 -1.95275,-0.97629 -0.68672,-0.68672 -0.0359,-2.75444 2.18075,-6.92902 2.44518,-4.60482 2.95059,-6.34071 2.23527,-7.67728 -0.50835,-0.94989 -1.55182,-2.24788 -2.3188,-2.88442 -0.767,-0.63654 -1.89375,-2.68919 -2.50393,-4.56145 -0.61017,-1.87226 -1.57066,-3.71076 -2.13442,-4.08556 -0.56376,-0.3748 -11.77824,-0.68785 -24.92106,-0.69566 l -23.89604,-0.0142 -2.49224,5.3334 c -1.37073,2.93336 -2.63571,5.59627 -2.81108,5.91757 -0.17536,0.3213 3.45578,4.79306 8.06922,9.93726 4.61343,5.14419 8.38806,9.734603 8.38806,10.200922 0,0.466317 -0.53844,1.294706 -1.19651,1.840863 -0.91594,0.760166 -3.22147,-1.299074 -9.83227,-8.781985 -7.2724,-8.23177 -8.95055,-9.67613 -10.62972,-9.1488 -1.09667,0.3444 -3.81364,1.08903 -6.03772,1.65472 -2.57448,0.65481 -4.33164,1.72159 -4.83605,2.93597 -0.43575,1.04909 -2.31391,9.003172 -4.17367,17.675738 -1.85977,8.672565 -3.45833,15.856092 -3.55238,15.9634 -0.094,0.107306 -1.01147,-0.02467 -2.03871,-0.293318 -1.82599,-0.477511 -1.78918,-0.834031 1.64852,-15.963403 1.93392,-8.511238 3.52306,-16.374457 3.53142,-17.473827 0.0106,-1.3914 -1.23297,-2.73032 -4.09204,-4.40585 -2.25899,-1.32385 -4.3248,-2.407 -4.59071,-2.407 -0.2659,0 -7.600357,7.59994 -16.29879,16.888758 -8.698433,9.288818 -15.803649,17.323695 -15.789374,17.855282 0.0142,0.531588 3.181645,3.262201 7.038597,6.068031 3.856953,2.80583 7.220376,5.432839 7.474274,5.837796 0.253897,0.404967 -0.02899,1.32745 -0.628631,2.049981 -0.910132,1.096638 -2.334623,0.400329 -8.62201,-4.214598 -4.142462,-3.040546 -8.115121,-5.528273 -8.828133,-5.528273 -0.71301,0 -4.939513,3.860914 -9.39223,8.57981 -4.452718,4.718896 -9.46159,10.146827 -11.13083,12.062073 -2.263235,2.596771 -2.894726,4.041072 -2.483413,5.679881 0.303363,1.208686 1.287307,3.100539 2.186542,4.204098 1.632345,2.003251 1.64988,2.004058 10.910444,0.50236 5.101509,-0.827271 12.394273,-2.062152 16.206142,-2.744195 3.81187,-0.682035 7.255389,-1.039381 7.652264,-0.7941 0.396876,0.245279 0.721593,1.164999 0.721593,2.043812 0,1.353124 -2.521639,2.001423 -16.463962,4.232815 -9.055179,1.449236 -16.831251,2.972009 -17.280159,3.383951 -0.44891,0.411943 -1.566,2.963828 -2.482422,5.670874 -1.29347,3.820798 -1.422133,5.216274 -0.575123,6.237801 0.600106,0.723746 4.012875,3.571316 7.583931,6.327899 3.571057,2.756598 9.519292,7.334086 13.218299,10.172207 5.711028,4.3818478 6.943024,4.9796378 8.167799,3.9631618 0.79328,-0.65837 3.401667,-1.683585 5.796417,-2.278273 l 4.354088,-1.0812588 4.167764,-12.211651 c 2.292269,-6.716404 4.37925,-12.205257 4.637736,-12.197446 0.258484,0.0074 1.076777,0.398067 1.818429,0.867229 1.138486,0.720194 0.72596,2.739955 -2.649262,12.971077 l -3.997721,12.1180408 2.862725,2.674191 c 1.574498,1.4708 3.254447,3.704492 3.733218,4.96375397 0.727301,1.912949 1.683946,2.38725903 5.815588,2.88342503 2.71981,0.326612 8.38862,0.59747 12.59737,0.601905 7.31446,0.0072 7.65233,0.100146 7.65382,2.095039 0.002,2.074184 -0.0744,2.085271 -12.38925,1.806587 l -12.390832,-0.28038 -1.127565,2.722162 c -0.620161,1.4972062 -2.276496,3.8229432 -3.680746,5.1682932 -1.404252,1.345363 -3.959631,2.849468 -5.678622,3.342474 -2.028512,0.581775 -4.321661,0.574253 -6.533804,-0.02145 -1.874604,-0.504774 -4.476134,-1.757687 -5.781178,-2.784236 -1.305046,-1.026548 -2.869127,-3.3703 -3.475737,-5.2083512 -0.606608,-1.838036 -0.901181,-5.131755 -0.654606,-7.319361 0.246575,-2.18762003 0.19093,-4.346442 -0.123654,-4.797375 -0.314585,-0.450936 -6.560304,-5.498604 -13.879374,-11.2170618 -7.31907,-5.71843 -14.050786,-10.397166 -14.959364,-10.397166 -0.908582,0 -3.15042,0.626095 -4.981863,1.391321 -1.831445,0.765226 -4.715751,1.391321 -6.40957,1.391321 -1.693817,0 -4.917849,-0.939142 -7.164514,-2.086981 -2.246666,-1.14784 -5.348916,-3.675745 -6.893888,-5.617565 -2.369701,-2.978392 -2.861129,-4.501637 -3.142072,-9.739245 -0.305274,-5.691187 -0.09096,-6.570911 2.571378,-10.554993 1.846259,-2.762857 4.345332,-5.043881 6.859457,-6.260943 2.175275,-1.053036 5.024346,-1.914605 6.331266,-1.914605 1.306921,0 2.788259,-0.521746 3.291865,-1.159434 0.503603,-0.637689 1.188005,-5.211618 1.520891,-10.164283 l 0.605248,-9.004851 -5.044159,-3.226705 c -3.282903,-2.100029 -5.937648,-4.751314 -7.603068,-7.593137 -1.632498,-2.785647 -2.708764,-6.173523 -2.972838,-9.357913 -0.280568,-3.383269 0.1087,-6.359959 1.208194,-9.238939 0.892168,-2.33612 2.819996,-5.61178 4.284059,-7.27925 1.464062,-1.66748 4.840975,-3.96918 7.504248,-5.11489 3.800942,-1.63512 5.96428,-1.98137 10.059369,-1.61004 2.869378,0.26019 6.432574,1.14764 7.918209,1.97213 1.485636,0.82449 3.837146,2.40374 5.225578,3.50946 l 2.524421,2.01038 8.606145,-2.57829 c 4.733379,-1.41806 13.823596,-4.30813 20.200482,-6.42239 l 11.594339,-3.84409 0.551649,-5.76581 c 0.382945,-4.00254 1.298486,-6.89434 2.993756,-9.45608 1.34316,-2.02967 4.43409,-4.85968 6.86873,-6.28896 3.51916,-2.06594 5.5675,-2.59867 9.9919,-2.59867 4.36599,0 6.47878,0.53631 9.80434,2.48875 2.33148,1.36882 5.33124,4.08039 6.66612,6.02571 1.33488,1.94532 2.71014,4.6958 3.05612,6.11216 0.34599,1.41638 1.40186,2.98881 2.34637,3.49431 1.04125,0.55725 10.9449,0.82148 25.15699,0.67119 l 23.43968,-0.24789 1.29145,-2.78264 c 0.7103,-1.53045 2.17657,-3.76241 3.2584,-4.95988 1.08182,-1.1975 3.51555,-2.97143 5.40829,-3.94208 1.89275,-0.97066 4.93551,-1.76483 6.76168,-1.76483 1.82616,0 4.86892,0.79417 6.76167,1.76483 1.89275,0.97065 4.35267,2.74458 5.46654,3.94208 1.11386,1.19747 2.47039,3.35225 3.01453,4.78839 0.54412,1.43612 0.98933,4.29481 0.98933,6.35264 0,2.05784 -0.66615,5.14532 -1.48032,6.86108 -0.81418,1.71576 -1.33593,3.55197 -1.15943,4.08046 0.17648,0.52849 7.41662,9.2006 16.08918,19.27136 8.67257,10.070756 17.28034,19.959804 19.12839,21.97566 l 3.36007,3.665183 5.11467,-1.226986 c 2.91262,-0.69873 6.56033,-0.955781 8.47253,-0.597052 2.00436,0.376027 4.81197,2.014575 6.9653,4.065011 2.27581,2.167075 3.99996,4.895307 4.67081,7.3909 0.58485,2.175691 0.78859,5.420501 0.45276,7.210676 -0.33585,1.790166 -1.50286,4.578845 -2.59338,6.197044 -1.09051,1.618209 -3.4422,3.797972 -5.226,4.84391 -2.42903,1.424286 -4.7062,1.870873 -9.07052,1.778869 l -5.82725,-0.122857 -9.26097,15.634363 -9.26095,15.634377 3.10304,4.0651928 c 1.70666,2.235852 3.64642,6.006027 4.31059,8.37818497 0.66416,2.37215803 0.95675,5.85862003 0.65019,7.74767103 -0.30655,1.88908 -1.51074,5.2872502 -2.67597,7.5515232 -1.16523,2.264259 -3.57761,5.288714 -5.36086,6.721007 -1.78324,1.432292 -5.22405,3.12837 -7.64622,3.769073 -3.42668,0.906416 -5.54273,0.926069 -9.53561,0.08855 -2.82241,-0.592007 -6.3312,-1.93053 -7.79732,-2.974514 -1.46615,-1.044012 -3.16102,-1.898181 -3.76641,-1.898181 -0.60538,0 -3.56707,1.730064 -6.58152,3.844581 -4.15601,2.915266 -5.48084,4.394791 -5.48084,6.120768 0,1.251899 -0.68353,3.716623 -1.51896,5.477151 -0.92521,1.949748 -2.90488,3.908032 -5.06455,5.009813 -1.95009,0.994852 -4.16021,1.808818 -4.91136,1.808818 -0.75118,0 -1.56751,0.730443 -1.81408,1.623208 -0.24657,0.892764 -0.72521,3.656158 -1.06366,6.140854 -0.57204,4.199745 -0.4092,4.730331 2.31413,7.540074 1.92853,1.989734 3.0977,4.276861 3.42188,6.693853 0.32462,2.42024 -0.0217,4.66581 -1.01647,6.58932 -0.82989,1.60485 -2.73329,3.55106 -4.22977,4.32492 -1.49648,0.77385 -3.68075,1.38057 -4.85393,1.34822 z m -0.27794,-1.7963 c 2.50913,0 4.09309,-0.70398 6.1004,-2.71129 2.11851,-2.1185 2.7113,-3.5461 2.7113,-6.52955 0,-3.1858 -0.57785,-4.388362 -3.48849,-7.259845 l -3.48848,-3.441577 -3.23624,1.60186 c -1.77992,0.88101 -4.17537,2.67822 -5.32321,3.993786 -1.31627,1.508624 -2.08698,3.598086 -2.08698,5.657996 0,2.3731 0.74127,4.00731 2.71129,5.97733 2.00732,2.00731 3.59128,2.71129 6.10041,2.71129 z m 0,-4.63773 c -1.07132,0 -2.44873,-0.50088 -3.06091,-1.11306 -0.61218,-0.61218 -1.10666,-1.96872 -1.09885,-3.01453 0.007,-1.04581 0.32086,-2.3493 0.69566,-2.89667 0.3748,-0.54737 1.44213,-1.276322 2.37185,-1.619889 0.92974,-0.343569 2.49498,-0.194089 3.47831,0.332177 1.10368,0.590672 1.7879,1.938302 1.7879,3.521362 0,1.41047 -0.50087,3.06537 -1.11306,3.67755 -0.61218,0.61218 -1.98958,1.11306 -3.0609,1.11306 z m -0.0993,-1.8551 c 1.22176,0 2.48806,-0.69953 2.81673,-1.55599 0.33166,-0.8643 -0.004,-2.15767 -0.75638,-2.90948 -0.74443,-0.74441 -2.01196,-1.10081 -2.81673,-0.79198 -0.8048,0.30883 -1.46325,1.61809 -1.46325,2.90948 0,1.85814 0.46305,2.34797 2.21963,2.34797 z m -30.65001,-9.311774 c 1.45336,0.02 4.09335,-0.652182 5.86665,-1.49367 1.77328,-0.841474 3.88875,-2.544262 4.70102,-3.783943 0.81229,-1.239681 2.0262,-4.371689 2.6976,-6.960009 1.18019,-4.54975 1.14425,-4.782549 -1.08255,-7.009344 -1.26681,-1.266797 -2.30329,-2.626523 -2.30329,-3.0216 0,-0.395077 -1.98263,-1.620251 -4.40584,-2.722612 -2.42322,-1.102361 -5.1363,-2.395318 -6.02907,-2.873237 -1.03704,-0.555166 -1.6232,-0.537977 -1.6232,0.04754 0,0.504093 -1.70474,1.786253 -3.78832,2.849208 -2.81412,1.435654 -4.26724,3.015339 -5.65069,6.142869 -1.34379,3.037862 -1.68727,5.143611 -1.23354,7.562248 0.34586,1.843601 1.48884,4.559764 2.53994,6.035911 1.05111,1.476134 3.20659,3.247821 4.78997,3.937076 1.58338,0.689269 4.06797,1.269536 5.52132,1.289508 z m -0.33396,-4.601431 c -1.98508,0 -3.77988,-0.864923 -5.62626,-2.711293 -1.62032,-1.620352 -2.71125,-3.691565 -2.71125,-5.147568 0,-1.339957 0.59479,-3.586477 1.32175,-4.992276 0.72698,-1.405799 2.4162,-3.054659 3.75384,-3.66413 1.33764,-0.609471 3.28896,-1.108129 4.33628,-1.108129 1.04732,0 3.32336,1.419147 5.05787,3.153661 1.73451,1.734513 3.15366,4.050931 3.15366,5.147567 0,1.096651 -0.63041,3.212995 -1.40091,4.702998 -0.77052,1.490003 -2.20396,3.138848 -3.18545,3.66413 -0.98149,0.525267 -3.09626,0.95504 -4.69949,0.95504 z m 0.40682,-1.855095 c 2.32966,0 3.69276,-0.653007 5.10152,-2.443956 1.05733,-1.344175 1.92241,-3.450127 1.92241,-4.679895 0,-1.229768 -1.02452,-3.260459 -2.2767,-4.512648 -1.25221,-1.252188 -3.28288,-2.276707 -4.51266,-2.276707 -1.22976,0 -3.33572,0.865082 -4.67989,1.922413 -1.79095,1.408771 -2.44396,2.771859 -2.44396,5.10151 0,1.94237 0.72167,3.90077 1.85509,5.034189 1.13343,1.133434 3.09183,1.855094 5.03419,1.855094 z m 35.02749,-10.26999 c 0.3525,0.03681 0.86964,-0.303105 1.14919,-0.755429 0.27954,-0.45231 1.90701,-1.084795 3.61658,-1.405524 1.70959,-0.320714 3.97893,-1.515873 5.043,-2.6559 1.06407,-1.140028 2.17432,-3.220618 2.46722,-4.623533 0.29289,-1.402915 0.73959,-3.555998 0.99265,-4.784636 0.38125,-1.851022 -0.28187,-2.725351 -3.86922,-5.101509 -2.38113,-1.577193 -5.30593,-2.867628 -6.49957,-2.867628 -1.19362,0 -4.0274,0.939141 -6.29726,2.086981 -2.81543,1.423727 -3.9895,2.545798 -3.69428,3.530664 0.23802,0.794024 0.0668,3.402751 -0.38055,5.79717 -0.62239,3.331445 -0.53624,4.353486 0.36689,4.353486 0.64912,0 2.36917,1.430756 3.82233,3.179443 1.45316,1.748702 2.93051,3.209589 3.28302,3.246415 z m 2.76436,-6.425858 c -1.10768,0 -2.84875,-0.834792 -3.86905,-1.855094 -1.0203,-1.020302 -1.85509,-2.689887 -1.85509,-3.710189 0,-1.020301 0.83479,-2.689886 1.85509,-3.710188 1.0203,-1.020302 2.59702,-1.855095 3.50379,-1.855095 0.90681,0 2.5764,0.649776 3.71019,1.443916 1.29216,0.905068 2.06149,2.409101 2.06149,4.030207 0,1.422466 -0.76331,3.277067 -1.69624,4.121367 -0.93293,0.8443 -2.60252,1.535076 -3.71018,1.535076 z m 0.76218,-2.047111 c 1.87003,-0.218539 2.38182,-0.855792 2.61365,-3.254458 0.24553,-2.540306 -0.0658,-3.071573 -2.09902,-3.581883 -1.39457,-0.350004 -2.96088,-0.12319 -3.76658,0.545528 -0.75861,0.629587 -1.37928,1.844906 -1.37928,2.700699 0,0.855821 0.51882,2.074836 1.15293,2.708944 0.63409,0.634095 2.19933,1.030621 3.4783,0.88117 z m 40.07063,-10.22483 c 5.29192,-0.259685 6.72998,-0.724226 9.73924,-3.146052 1.94182,-1.562757 4.43469,-4.168889 5.53971,-5.791401 1.10499,-1.622512 2.28952,-4.609895 2.63227,-6.6386142 0.34275,-2.02872 0.34275,-5.348454 0,-7.377174 -0.34275,-2.02871903 -1.63116,-5.054842 -2.86313,-6.724716 -1.23197,-1.669875 -2.95608,-4.144933 -3.83137,-5.5001518 -1.36034,-2.106242 -2.47158,-2.557813 -7.65329,-3.110022 -3.33404,-0.355308 -6.7398,-1.006997 -7.56835,-1.44822 -1.05856,-0.563688 -2.01609,-0.239075 -3.22051,1.09181 -1.08484,1.198739 -2.48967,1.745731 -3.82693,1.490105 -1.23293,-0.235699 -2.1129,0.05174 -2.1129,0.690167 0,0.601746 -1.34151,2.8395408 -2.98113,4.9728848 -1.63963,2.133343 -3.47819,3.878799 -4.0857,3.878799 -0.7528,0 -0.94646,1.178767 -0.60811,3.70131797 0.31,2.31121603 0.0546,4.23371703 -0.68005,5.11890103 -0.95899,1.155492 -0.91728,1.714498 0.22556,3.023412 0.77114,0.883185 1.90191,3.1628782 2.51283,5.0659732 0.61092,1.903095 0.84776,3.885727 0.5263,4.405849 -0.33038,0.534571 0.31484,0.945677 1.48422,0.945677 1.13778,0 2.72858,0.597196 3.53511,1.327103 0.80653,0.729907 2.71768,2.002531 4.24701,2.828048 1.98474,1.071375 4.55756,1.41377 8.98922,1.196304 z m -1.57302,-4.423907 c -3.42049,0 -5.55889,-0.604848 -7.99795,-2.26223 -1.83104,-1.244217 -4.01492,-3.707333 -4.85304,-5.473571 -0.83814,-1.766239 -1.52389,-4.9388272 -1.52389,-7.0501992 0,-2.111358 0.82182,-5.44973103 1.82625,-7.418609 1.00445,-1.968863 3.24506,-4.456617 4.97912,-5.528326 2.07966,-1.285304 4.6991,-1.948573 7.69557,-1.948573 2.6431,0 5.89421,0.719153 7.77466,1.719774 1.77757,0.945866 4.16422,3.345894 5.30367,5.333396 1.30165,2.27043197 2.07172,5.165104 2.07172,7.787584 0,2.622494 -0.77007,5.5171662 -2.07172,7.7875982 -1.13945,1.987487 -3.5261,4.387516 -5.30367,5.333396 -1.91465,1.018809 -5.13485,1.71976 -7.90072,1.71976 z m 0.001,-1.016375 c 0.51015,0.04319 2.41216,-0.333946 4.2267,-0.838024 1.81452,-0.504078 4.47094,-2.139605 5.90316,-3.634506 1.8019,-1.880791 2.74946,-4.008424 3.07619,-6.9072702 0.25972,-2.304099 0.21215,-5.225424 -0.10565,-6.491859 -0.31784,-1.26640603 -1.65199,-3.579042 -2.96476,-5.139176 -1.36381,-1.620801 -3.94808,-3.257009 -6.02933,-3.817436 -2.51055,-0.676022 -4.7371,-0.686052 -7.16496,-0.03232 -1.93735,0.521673 -4.75478,2.234751 -6.26094,3.806842 -2.48945,2.598653 -2.73822,3.43705397 -2.73822,9.229325 0,5.7971702 0.24751,6.6293532 2.7478,9.2391092 1.51129,1.577453 4.01567,3.236791 5.56528,3.687449 1.54962,0.450628 3.23488,0.854662 3.74503,0.897822 z M 86.181999,16.065691 c 1.711949,-0.236104 4.064158,-1.052751 5.227131,-1.81476 1.162973,-0.762009 3.183868,-3.298778 4.490879,-5.6372692 l 2.376383,-4.251818 -1.980729,-3.44870703 c -1.0894,-1.896776 -3.316232,-4.96320297 -4.948512,-6.81426797 -2.075555,-2.353767 -3.347694,-3.124892 -4.231465,-2.564958 -0.695024,0.440338 -2.174749,0.807024 -3.288278,0.814836 -1.113529,0.0072 -3.826604,0.95333 -6.029056,2.101169 l -4.004218,2.086981 -0.312546,6.033317 c -0.266163,5.137916 -0.0025,6.427438 1.776425,8.6890152 1.148934,1.460641 3.376561,3.236212 4.950281,3.945728 1.573722,0.709501 4.261997,1.096839 5.973946,0.860734 z M 84.89551,11.841424 c -1.451689,0 -3.525521,-1.093143 -5.14367,-2.7112922 -1.490761,-1.491206 -2.710842,-3.390214 -2.710842,-4.220021 0,-0.829807 0.610656,-2.689611 1.357016,-4.13290303 0.746358,-1.443307 2.032683,-2.88346897 2.858501,-3.20035697 0.825819,-0.316902 2.646782,-0.57618 4.046584,-0.57618 1.461069,0 3.404097,0.914373 4.561874,2.14676397 1.211592,1.289682 2.016779,3.34325603 2.016779,5.14368303 0,1.945168 -0.798988,3.795886 -2.276707,5.273599 C 88.34538,10.824398 86.241757,11.841424 84.89596,11.841424 Z M 84.780944,9.9863298 c 1.196309,0 2.895253,-0.795748 3.775427,-1.768325 1.019857,-1.126941 1.492546,-2.890874 1.303192,-4.863173 -0.224852,-2.342056 -0.943465,-3.40315603 -2.954326,-4.362355 -2.371411,-1.131187 -2.920094,-1.072143 -5.101509,0.54904897 -1.34437,0.999114 -2.573942,2.89784603 -2.732383,4.21941203 -0.178456,1.488496 0.439214,3.130124 1.623207,4.314109 1.051205,1.051215 2.890082,1.911283 4.086392,1.911283 z M 238.92673,-14.807961 c 0.52596,-0.160625 5.01297,-7.080648 9.97113,-15.377833 4.95816,-8.297177 9.01483,-15.364799 9.01483,-15.705821 0,-0.341022 -1.00773,-2.10503 -2.23943,-3.920026 -1.23168,-1.814988 -2.52019,-4.961812 -2.86335,-6.992926 -0.34315,-2.031124 -0.9079,-3.868466 -1.25497,-4.08297 -0.34709,-0.214514 -7.05065,-1.886287 -14.8968,-3.715049 -7.84617,-1.828769 -15.02856,-3.325033 -15.9609,-3.325033 -1.34015,0 -1.60077,0.534193 -1.24448,2.550754 0.24786,1.402915 2.12481,12.751267 4.17096,25.218558 2.04617,12.46729 3.95356,22.902202 4.23862,23.188683 0.28508,0.286482 2.67602,0.955765 5.31321,1.487308 2.63719,0.531528 5.22522,0.835009 5.75118,0.674355 z M 31.389093,-23.425729 c 1.674377,0.01159 4.542776,-0.605731 6.37422,-1.370958 1.831443,-0.765226 4.218066,-1.39132 5.303603,-1.39132 1.392012,0 2.009941,-0.615066 2.096652,-2.086975 0.06762,-1.147839 0.801133,-3.965264 1.630027,-6.260943 0.828895,-2.295679 1.91286,-4.885057 2.408813,-5.754169 0.58822,-1.0308 0.581241,-1.778283 -0.02007,-2.149913 -0.506993,-0.313336 -1.750634,-2.194345 -2.763646,-4.18001 -1.013012,-1.985665 -1.842134,-4.357376 -1.842495,-5.270462 -4.45e-4,-1.129807 -0.764373,-1.70433 -2.391328,-1.79844 -1.314871,-0.07606 -3.297209,-0.986817 -4.405194,-2.023925 -1.791184,-1.676607 -2.47726,-1.776004 -6.188483,-0.896605 -2.295679,0.543979 -5.323722,1.40184 -6.728985,1.906341 -1.405263,0.504512 -3.787727,2.321261 -5.294365,4.037232 -1.506638,1.715962 -3.214047,4.882858 -3.794243,7.037542 -0.802109,2.978807 -0.786368,4.81549 0.06568,7.664441 0.616322,2.06076 1.971312,4.943315 3.011089,6.405678 1.039777,1.46236 3.601381,3.435832 5.692454,4.38548 2.091074,0.949649 5.171896,1.735803 6.846271,1.747006 z m 0.107378,-4.620835 c -1.945041,0.0019 -4.658067,-0.881208 -6.492829,-2.11375 -1.975763,-1.327265 -3.637967,-3.512399 -4.454982,-5.856542 -0.719335,-2.063884 -1.031154,-4.823579 -0.695931,-6.159219 0.334045,-1.330936 1.677795,-3.692036 2.986112,-5.246883 1.308317,-1.554846 3.812816,-3.222957 5.565554,-3.706913 1.953837,-0.539481 4.373503,-0.552243 6.25405,-0.03302 1.686991,0.465795 4.224839,2.055166 5.639663,3.531922 1.582325,1.65159 2.761494,4.09475 3.063684,6.347743 0.326036,2.430785 -0.0261,4.663233 -1.046959,6.63735 -0.846028,1.636035 -2.874507,3.789382 -4.507731,4.785216 -1.633223,0.995842 -4.473007,1.812176 -6.310631,1.814078 z m -0.341534,-1.851625 c 1.722383,0 4.125751,-0.452968 5.340821,-1.006584 1.215068,-0.553626 2.904292,-2.183261 3.753832,-3.621412 0.849539,-1.438162 1.544617,-4.022791 1.544617,-5.743642 0,-1.72084 -0.651432,-4.058852 -1.447627,-5.19558 -0.796195,-1.136719 -2.65375,-2.69048 -4.127899,-3.452793 -1.474151,-0.762314 -3.640143,-1.384466 -4.813318,-1.382556 -1.173173,0.0019 -3.418494,0.78733 -4.9896,1.745393 -1.571107,0.958055 -3.392798,3.036519 -4.048203,4.618805 -0.702984,1.69716 -0.94501,4.191566 -0.590203,6.082844 0.362428,1.931914 1.723013,4.149706 3.423709,5.580745 1.808561,1.521797 3.947081,2.37478 5.953871,2.37478 z m 127.642083,3.710182 c 1.48976,0 1.62574,-0.304091 0.81417,-1.820547 -0.54798,-1.023892 -1.55135,-1.599137 -2.29294,-1.314556 -0.72523,0.278292 -1.09161,1.097548 -0.81417,1.820552 0.27745,0.723007 1.30928,1.314551 2.29294,1.314551 z m 106.6893,-18.770495 c 4.24974,0.181985 6.71528,-0.245847 9.67571,-1.678963 2.89207,-1.400029 4.49254,-2.996913 5.88359,-5.870454 1.05096,-2.171007 1.91084,-5.05925 1.91084,-6.418311 0,-1.359061 -0.67357,-4.154437 -1.49681,-6.211939 -0.82326,-2.057504 -2.69757,-4.595931 -4.16515,-5.640935 -1.46758,-1.04501 -4.12664,-2.136668 -5.90901,-2.425915 -1.78239,-0.289237 -5.75162,0.03116 -8.82051,0.711994 -4.87836,1.082262 -5.57983,1.510641 -5.57983,3.407576 0,1.193336 -1.01654,3.186236 -2.25899,4.428677 -1.24243,1.242439 -1.92485,2.465475 -1.51648,2.717869 0.40838,0.252386 0.9719,2.169153 1.25226,4.259474 0.28038,2.090328 1.58889,5.357761 2.90782,7.260959 1.31891,1.903205 2.40153,3.85533 2.40581,4.338062 0.004,0.482733 2.57412,0.987587 5.71075,1.121906 z m 2.62541,-4.418176 c -2.13429,0 -3.84711,-0.882932 -6.11783,-3.153661 -2.25827,-2.25827 -3.15366,-3.987357 -3.15366,-6.090032 0,-1.615007 0.46625,-3.848077 1.03611,-4.962377 0.56985,-1.114299 1.92639,-2.747163 3.01453,-3.628582 1.12635,-0.912392 3.57632,-1.60949 5.6886,-1.618607 2.47858,-0.01073 4.5667,0.675235 6.29038,2.066362 1.66114,1.340649 2.77724,3.31585 3.1334,5.545349 0.30428,1.904644 0.0646,4.642521 -0.53251,6.08418 -0.59715,1.441659 -2.28029,3.326833 -3.74031,4.189285 -1.46,0.862443 -3.98842,1.568083 -5.61871,1.568083 z m 0.46775,-1.855095 c 2.29961,0 4.03557,-0.704824 5.60745,-2.276709 1.63307,-1.633077 2.2767,-3.291782 2.2767,-5.867366 0,-2.641116 -0.61993,-4.173062 -2.34423,-5.792959 -1.53097,-1.438264 -3.45288,-2.202284 -5.53992,-2.202284 -2.08703,0 -4.00894,0.76402 -5.53992,2.202284 -1.72429,1.619897 -2.34423,3.151843 -2.34423,5.792959 0,2.575584 0.64363,4.234289 2.27671,5.867366 1.57188,1.571885 3.30784,2.276709 5.60744,2.276709 z M 42.041745,-54.94196 c 0.451288,0 4.482783,-3.860915 8.958879,-8.579811 4.476097,-4.718896 9.453237,-10.095802 11.060309,-11.948679 1.607074,-1.852868 2.921952,-3.814262 2.921952,-4.358641 0,-0.544377 -1.480162,-2.118755 -3.289252,-3.498614 l -3.289251,-2.508833 -2.507918,1.85415 c -1.379354,1.019782 -3.896344,2.572122 -5.593311,3.449642 -1.696966,0.877521 -4.827438,1.890334 -6.956603,2.250696 l -3.871211,0.655201 -0.843153,10.087602 c -0.777495,9.302065 -0.709517,10.185321 0.872942,11.342445 0.943853,0.69016 2.08533,1.254842 2.536617,1.254842 z M 251.93001,-65.218208 c 0.53566,0.04026 1.4748,-0.427645 2.08698,-1.039827 0.61219,-0.612181 1.11306,-1.874924 1.11306,-2.806089 0,-0.931165 -8.40807,-11.386943 -18.68461,-23.235054 -10.27654,-11.848112 -19.29673,-21.901652 -20.04487,-22.341192 -0.91172,-0.53565 -1.94652,-0.21292 -3.13813,0.97869 -1.56988,1.56988 -1.66551,2.31445 -0.81744,6.36446 0.52825,2.52262 2.02521,11.046826 3.32659,18.942678 1.30138,7.895851 2.80606,14.627982 3.34375,14.960295 0.53767,0.332302 7.50442,2.15009 15.48163,4.039514 7.97721,1.889431 14.92142,3.57662 15.43157,3.749312 0.51015,0.17269 1.36581,0.346939 1.90147,0.387213 z m -34.82939,-3.728461 c 0.25507,0.0347 0.9481,-0.245058 1.54002,-0.621697 0.75614,-0.4811 0.45584,-1.406079 -1.00955,-3.109705 -1.79431,-2.086006 -2.21267,-2.223839 -2.99336,-0.986195 -0.64213,1.018029 -0.48255,1.908864 0.54581,3.046612 0.79933,0.884342 1.662,1.636286 1.91708,1.670985 z M 37.852132,-78.619733 c 0.892764,-0.378161 3.292792,-0.975996 5.333396,-1.328519 2.040603,-0.352523 5.407696,-1.518153 7.482428,-2.59029 2.07473,-1.072137 4.317168,-2.60594 4.983195,-3.408453 0.666027,-0.802512 1.701163,-1.459113 2.300307,-1.459113 0.620553,0 1.551044,-2.69437 2.162192,-6.260943 0.803353,-4.68825 0.809699,-7.796029 0.02526,-12.372179 -0.682784,-3.98316 -1.592773,-6.40561 -2.613238,-6.9566 -0.861116,-0.46495 -3.340741,-2.08087 -5.510278,-3.59094 -3.084627,-2.14699 -5.20158,-2.8256 -9.710094,-3.11268 -4.477091,-0.28508 -6.577499,0.0504 -9.399232,1.50118 -1.998565,1.02757 -4.759451,3.05437 -6.135304,4.50401 -1.375848,1.44964 -3.149782,4.18753 -3.94207,6.08421 -0.792288,1.89668 -1.440525,5.35361 -1.440525,7.682056 0,2.328449 0.648237,5.785375 1.440526,7.682056 0.792289,1.89668 2.566223,4.634574 3.942075,6.084212 1.375852,1.449636 4.066786,3.44075 5.979851,4.424699 1.913066,0.98395 3.478302,2.242569 3.478302,2.796929 0,0.603509 0.651308,0.732048 1.623208,0.320365 z m 3.028999,-6.007201 c -2.485629,-0.002 -5.370308,-0.724139 -7.095524,-1.776124 -1.5989,-0.974961 -4.056813,-3.280021 -5.462032,-5.122356 -2.019389,-2.647557 -2.561306,-4.365343 -2.585307,-8.195008 -0.02164,-3.453138 0.581418,-5.856168 2.098888,-8.363508 1.197175,-1.97811 3.753134,-4.34664 5.838847,-5.41069 2.040275,-1.04087 5.489785,-1.89249 7.66558,-1.89249 2.175793,0 5.21786,0.65254 6.760144,1.45008 1.542284,0.79755 3.675977,2.55843 4.741542,3.91308 1.065563,1.35464 2.40861,4.03579 2.984552,5.95811 0.57594,1.92232 0.774299,4.949633 0.440795,6.727359 -0.333504,1.777727 -1.535348,4.593002 -2.670768,6.256166 -1.135417,1.663165 -3.518771,3.796791 -5.29634,4.741392 -1.777569,0.944601 -5.116738,1.715896 -7.420377,1.713989 z m 0.622388,-1.851626 c 4.500878,0 5.370372,-0.347381 8.706193,-3.478302 2.574659,-2.416514 3.872319,-4.524266 4.250994,-6.904771 0.299785,-1.884559 0.280527,-4.836567 -0.0428,-6.560017 -0.323321,-1.72346 -1.880912,-4.45612 -3.461312,-6.07259 -1.5804,-1.61647 -4.524331,-3.38357 -6.542069,-3.92689 -2.683328,-0.72255 -4.58658,-0.69409 -7.086546,0.10594 -1.879861,0.60159 -4.410863,1.98153 -5.624452,3.06654 -1.213586,1.085 -2.778822,3.31586 -3.478301,4.95747 -0.699475,1.6416 -1.271776,4.15249 -1.271776,5.579752 0,1.427261 0.772855,4.049393 1.717456,5.826962 0.944601,1.777568 3.093309,4.171085 4.774904,5.318924 2.238657,1.528084 4.396529,2.086982 8.057706,2.086982 z m 28.216339,8.347922 c 1.227052,0 1.755857,-0.659625 1.755857,-2.190241 0,-1.836103 -0.374938,-2.11857 -2.318868,-1.746964 -1.275377,0.243804 -2.318868,0.56918 -2.318868,0.72306 0,0.15388 0.253356,0.940013 0.563011,1.746964 0.309656,0.806953 1.353147,1.467181 2.318868,1.467181 z m -0.435992,-5.771157 c 0.59518,-0.141843 8.218866,-7.879119 16.941524,-17.193945 8.722659,-9.31482 15.85938,-17.50729 15.85938,-18.20548 0,-0.69819 -0.56556,-1.7388 -1.25679,-2.31248 -0.958766,-0.7957 -5.082767,0.18115 -17.391504,4.11952 -8.874099,2.83941 -17.491261,5.58572 -19.149251,6.10291 -1.843028,0.57491 -3.00593,1.5432 -2.992401,2.49163 0.01217,0.8532 0.408546,3.2182 0.880834,5.25555 0.522476,2.25386 0.526116,5.188354 0.0093,7.494512 -0.467175,2.084627 -1.096268,4.433539 -1.397987,5.219804 -0.36933,0.962459 0.752435,2.38635 3.433088,4.357724 2.189917,1.610483 4.468632,2.812097 5.063812,2.670255 z M 117.715,-111.08251 c 0.84117,-0.3378 3.61637,-1.22374 6.16713,-1.96875 2.55075,-0.74502 5.47252,-1.58241 6.49283,-1.86087 1.08481,-0.29606 2.92773,-2.68224 4.43835,-5.74673 1.4208,-2.88225 2.56863,-5.71109 2.55075,-6.28631 -0.0179,-0.57523 0.60412,-1.57422 1.38222,-2.21998 1.22263,-1.01469 1.23665,-1.37645 0.10324,-2.66432 -0.72132,-0.81962 -1.60662,-2.87776 -1.96733,-4.57365 -0.36071,-1.69588 -1.96882,-4.57882 -3.57358,-6.40654 -1.60476,-1.82772 -4.5909,-4.08324 -6.63588,-5.01225 -2.04499,-0.92901 -5.38774,-1.68912 -7.42834,-1.68912 -2.0406,0 -5.37977,0.77299 -7.42038,1.71776 -2.0406,0.94478 -4.83147,2.91824 -6.20193,4.38549 -1.37046,1.46724 -2.9357,3.84272 -3.4783,5.27885 -0.54261,1.43613 -0.99295,4.3579 -1.00076,6.49284 -0.008,2.13492 -0.39672,4.48632 -0.86424,5.22531 -0.606522,0.95871 -0.1755,1.96877 1.50457,3.52581 1.65224,1.53124 2.22669,2.85135 1.92578,4.42547 -0.24413,1.27707 -0.0499,2.00909 0.45096,1.69955 0.48389,-0.29906 3.14558,0.60264 5.91486,2.00377 2.76929,1.40113 5.27708,2.93909 5.57287,3.41769 0.29579,0.47859 1.22602,0.59379 2.06718,0.25598 z m 1.52939,-6.0051 c -3.40372,0 -5.5608,-0.60473 -7.95124,-2.22907 -1.8042,-1.22599 -4.04502,-3.92475 -4.97958,-5.99724 -1.17199,-2.599 -1.52357,-4.85054 -1.13312,-7.25655 0.31134,-1.9186 1.34579,-4.54165 2.29878,-5.82898 0.95299,-1.28733 3.1126,-3.27976 4.79912,-4.4276 1.88624,-1.28376 4.45931,-2.08698 6.6855,-2.08698 1.99049,0 4.80082,0.6111 6.24517,1.35801 1.44436,0.74689 3.70269,2.63747 5.01854,4.20127 1.31585,1.56379 2.66759,4.30986 3.00386,6.10238 0.40407,2.15382 0.0727,4.66966 -0.97699,7.41831 -1.0392,2.7211 -2.75549,4.95224 -4.96378,6.45282 -2.48603,1.6893 -4.60607,2.29363 -8.04626,2.29363 z m 1.25754,-1.30455 c 1.71195,-0.25617 4.10617,-1.11674 5.32048,-1.91239 1.21431,-0.79565 2.85883,-2.44017 3.65448,-3.65448 0.79565,-1.21431 1.67715,-3.62839 1.9589,-5.36461 0.30378,-1.87197 -0.0683,-4.54622 -0.91412,-6.57063 -0.79729,-1.90817 -2.78059,-4.23948 -4.49674,-5.28579 -1.6887,-1.02957 -4.65632,-1.8735 -6.59471,-1.87542 -1.9384,-0.001 -4.77428,0.6429 -6.30196,1.43289 -1.52768,0.79 -3.59238,2.77263 -4.58821,4.40585 -0.99584,1.63322 -1.81218,4.47301 -1.81408,6.31064 -0.002,1.9345 0.88294,4.66801 2.102,6.49283 1.15801,1.73343 3.55804,3.90211 5.3334,4.81929 2.05491,1.06159 4.35905,1.49833 6.34056,1.20182 z m 88.98325,5.94228 c 0.19882,0 1.06867,-0.87333 1.933,-1.94074 0.86434,-1.06741 2.70487,-2.00655 4.09009,-2.08698 1.62655,-0.0945 2.51882,-0.67067 2.51924,-1.62694 3.7e-4,-0.81439 0.67543,-2.83331 1.50015,-4.4865 1.02294,-2.05055 1.37103,-4.55476 1.0953,-7.87977 -0.24655,-2.97307 -1.186,-5.9719 -2.40878,-7.68914 -1.10252,-1.54836 -3.53243,-3.54019 -5.3998,-4.42633 -2.31123,-1.09674 -4.79642,-1.4765 -7.78392,-1.18944 -2.53282,0.24337 -5.66493,1.33047 -7.40675,2.57076 -1.65995,1.18197 -3.81213,3.94416 -4.78265,6.13817 -0.97052,2.19403 -2.19729,4.25656 -2.72615,4.58341 -0.62698,0.3875 -0.49977,1.12702 0.36561,2.1254 0.72995,0.84212 1.59795,2.6713 1.92892,4.06486 0.33096,1.39356 1.84792,3.95304 3.371,5.68774 1.52308,1.73469 2.76924,3.51929 2.76924,3.96577 0,0.44648 1.91669,0.65934 4.25928,0.47302 2.34832,-0.18677 4.72039,0.12235 5.28702,0.68898 0.56526,0.56525 1.1904,1.02773 1.3892,1.02773 z m -3.05135,-6.53343 c -1.53046,-0.0185 -3.92524,-0.65364 -5.32175,-1.41137 -1.39649,-0.75773 -3.17043,-2.59858 -3.94207,-4.09076 -0.77163,-1.49219 -1.40298,-3.58932 -1.40298,-4.66029 0,-1.07097 0.62372,-3.15334 1.38604,-4.62749 0.76231,-1.47415 2.31607,-3.33171 3.45279,-4.12791 1.13672,-0.79618 3.7959,-1.44762 5.90927,-1.44762 2.44793,0 4.7051,0.67853 6.21929,1.8696 1.30725,1.02828 2.85679,3.32396 3.44343,5.10151 0.8092,2.45188 0.80233,4.03278 -0.0284,6.55011 -0.66255,2.00756 -2.24803,4.02122 -4.01401,5.09805 -1.60539,0.97891 -4.17109,1.76469 -5.70154,1.74617 z m -0.30998,-1.81449 c 2.85175,0 4.32017,-0.62108 6.41038,-2.71129 1.81575,-1.81575 2.71129,-3.64915 2.71129,-5.55065 0,-1.79384 -0.9486,-3.90104 -2.57616,-5.72259 -1.98483,-2.22141 -3.3954,-2.90645 -6.14514,-2.9844 -2.9159,-0.0826 -4.05692,0.44494 -6.23554,2.88324 -1.64132,1.83696 -2.66655,4.02127 -2.66655,5.68123 0,1.54807 1.02288,3.91247 2.40132,5.55065 1.94224,2.30823 3.1085,2.85381 6.1004,2.85381 z m -78.84491,62.76273 c -1.86982,0.491025 -2.12529,0.269109 -1.85509,-1.611372 0.27916,-1.942729 1.17382,-2.352416 8.19504,-3.752642 4.33491,-0.864501 8.19583,-1.377658 8.57981,-1.140345 0.38398,0.237313 0.69814,1.16025 0.69814,2.050965 0,1.287908 -1.3768,1.851291 -6.72471,2.751716 -3.6986,0.622728 -7.70053,1.388492 -8.89319,1.701678 z"
       id="path171"
       inkscape:connector-curvature="0" />
    <path
       style="fill:#20336a;stroke-width:0.9275471"
       d="m 183.24515,75.842175 c -2.50913,0 -4.09309,-0.70398 -6.10041,-2.71129 -1.97002,-1.97002 -2.71129,-3.60423 -2.71129,-5.97733 0,-2.05991 0.77071,-4.149372 2.08698,-5.657996 1.14784,-1.315566 3.54329,-3.112776 5.32321,-3.993786 l 3.23624,-1.60186 3.48848,3.441577 c 2.91064,2.871483 3.48849,4.074045 3.48849,7.259845 0,2.98345 -0.59279,4.41105 -2.7113,6.52955 -2.00731,2.00731 -3.59127,2.71129 -6.1004,2.71129 z m 0,-4.63773 c 1.07132,0 2.44872,-0.50088 3.0609,-1.11306 0.61219,-0.61218 1.11306,-2.26708 1.11306,-3.67755 0,-1.58306 -0.68422,-2.93069 -1.7879,-3.521362 -0.98333,-0.526266 -2.54857,-0.675746 -3.47831,-0.332177 -0.92972,0.343567 -1.99705,1.072519 -2.37185,1.619889 -0.3748,0.54737 -0.68785,1.85086 -0.69566,2.89667 -0.007,1.04581 0.48667,2.40235 1.09885,3.01453 0.61218,0.61218 1.98959,1.11306 3.06091,1.11306 z M 152.49591,60.037571 c -1.45336,-0.02 -3.93795,-0.600239 -5.52133,-1.289508 -1.58338,-0.689255 -3.73886,-2.460942 -4.78996,-3.937076 -1.05111,-1.476147 -2.19409,-4.192295 -2.53994,-6.035911 -0.45374,-2.418623 -0.11027,-4.524387 1.23353,-7.562234 1.38346,-3.127544 2.83657,-4.707229 5.65069,-6.142884 2.08358,-1.062954 3.78832,-2.3451 3.78832,-2.849207 0,-0.585572 0.58616,-0.602761 1.62321,-0.04754 0.89276,0.477919 3.60584,1.770876 6.02906,2.873237 2.42322,1.102361 4.40585,2.327549 4.40585,2.722612 0,0.395077 1.03647,1.754803 2.30329,3.021615 2.22679,2.22678 2.26273,2.459579 1.08255,7.009329 -0.6714,2.58832 -1.88532,5.720328 -2.6976,6.960009 -0.81227,1.239696 -2.92775,2.942469 -4.70103,3.783957 -1.77329,0.841474 -4.41328,1.513627 -5.86664,1.493656 z m -0.33397,-4.601431 c 1.60323,0 3.718,-0.429773 4.69949,-0.95504 0.98149,-0.525282 2.41493,-2.174127 3.18545,-3.66413 0.7705,-1.490003 1.40091,-3.606347 1.40091,-4.702998 0,-1.096636 -1.41915,-3.413054 -3.15366,-5.147567 -1.73451,-1.734514 -4.01055,-3.153661 -5.05787,-3.153661 -1.04732,0 -2.99864,0.498658 -4.33628,1.108129 -1.33764,0.609471 -3.02686,2.258331 -3.75384,3.66413 -0.72696,1.405799 -1.32175,3.652319 -1.32175,4.992276 0,1.456003 1.09093,3.527216 2.71129,5.147568 1.84638,1.84637 3.64118,2.711293 5.62626,2.711293 z m 35.43432,-12.125085 c -0.35251,-0.03681 -1.82986,-1.497713 -3.28303,-3.246415 -1.45316,-1.748687 -3.17321,-3.179443 -3.82233,-3.179443 -0.90313,0 -0.98927,-1.022041 -0.36689,-4.353486 0.44732,-2.394419 0.61857,-5.003146 0.38056,-5.79717 -0.29523,-0.984866 0.87885,-2.106937 3.69427,-3.530664 2.26987,-1.14784 5.10364,-2.086981 6.29726,-2.086981 1.19364,0 4.11844,1.290435 6.49957,2.867628 3.58735,2.376158 4.25047,3.250487 3.86922,5.101509 -0.25306,1.228638 -0.69976,3.381721 -0.99265,4.784636 -0.2929,1.402915 -1.40314,3.483505 -2.46722,4.623533 -1.06407,1.140027 -3.33341,2.335186 -5.043,2.6559 -1.70957,0.320729 -3.33704,0.953214 -3.61657,1.405524 -0.27956,0.452324 -0.7967,0.79227 -1.14919,0.755429 z m 2.76435,-6.425858 c 1.10766,0 2.77725,-0.690776 3.71019,-1.535076 0.93292,-0.8443 1.69623,-2.698901 1.69623,-4.121367 0,-1.621106 -0.76932,-3.125139 -2.06148,-4.030207 -1.1338,-0.79414 -2.80338,-1.443916 -3.71019,-1.443916 -0.90678,0 -2.48349,0.834793 -3.5038,1.855095 -1.0203,1.020302 -1.85509,2.689887 -1.85509,3.710188 0,1.020302 0.83479,2.689887 1.85509,3.710189 1.02031,1.020302 2.76137,1.855094 3.86905,1.855094 z m 40.83281,-12.271941 c -4.43166,0.217466 -7.00447,-0.124929 -8.98922,-1.196304 -1.52932,-0.825517 -3.44047,-2.098141 -4.24701,-2.828048 -0.80653,-0.729907 -2.39733,-1.327103 -3.53511,-1.327103 -1.16938,0 -1.8146,-0.411106 -1.48422,-0.945677 0.32147,-0.520122 0.0846,-2.502754 -0.5263,-4.405849 -0.61092,-1.903095 -1.74168,-4.1827882 -2.51282,-5.0659732 -1.14284,-1.308914 -1.18455,-1.86792 -0.22557,-3.023412 0.73465,-0.885184 0.99005,-2.807685 0.68005,-5.11890103 -0.33835,-2.52255097 -0.14464,-3.70131797 0.60811,-3.70131797 0.60751,0 2.44607,-1.745456 4.0857,-3.878799 1.63963,-2.133344 2.98114,-4.3711388 2.98114,-4.9728848 0,-0.638413 0.87996,-0.925866 2.11289,-0.690167 1.33726,0.255626 2.74209,-0.291366 3.82693,-1.490105 1.20442,-1.330885 2.16195,-1.655498 3.22052,-1.09181 0.82854,0.441223 4.23431,1.092912 7.56835,1.44822 5.18171,0.552209 6.29294,1.00378 7.65329,3.110022 0.87528,1.3552188 2.59939,3.8302768 3.83136,5.5001518 1.23197,1.669874 2.52038,4.69599697 2.86314,6.724716 0.34274,2.02872 0.34274,5.348454 0,7.377174 -0.34276,2.0287192 -1.52728,5.0161022 -2.63228,6.6386142 -1.10501,1.622512 -3.59788,4.228644 -5.5397,5.791401 -3.00927,2.421826 -4.44733,2.886367 -9.73925,3.146052 z m -1.57302,-4.423907 c 2.76588,0 5.98607,-0.700951 7.90072,-1.71976 1.77757,-0.94588 4.16422,-3.345909 5.30367,-5.333396 1.30165,-2.270432 2.07172,-5.1651042 2.07172,-7.7875982 0,-2.62248 -0.77007,-5.51715203 -2.07172,-7.787584 -1.13945,-1.987502 -3.5261,-4.38753 -5.30367,-5.333396 -1.88044,-1.000621 -5.13155,-1.719774 -7.77466,-1.719774 -2.99647,0 -5.6159,0.663269 -7.69557,1.948573 -1.73406,1.071709 -3.97467,3.559463 -4.97911,5.528326 -1.00443,1.96887797 -1.82626,5.307251 -1.82626,7.418609 0,2.111372 0.68575,5.2839602 1.52389,7.0501992 0.83813,1.766238 3.02201,4.229354 4.85304,5.473571 2.43906,1.657382 4.57746,2.26223 7.99795,2.26223 z M 86.182689,16.065691 C 84.47074,16.301796 81.782465,15.914458 80.208744,15.204957 78.635024,14.495441 76.407396,12.71987 75.258462,11.259229 73.479512,8.9976518 73.215875,7.7081298 73.482037,2.5702138 l 0.312546,-6.033317 4.004458,-2.086981 c 2.202454,-1.147839 4.915529,-2.093372 6.029057,-2.101169 1.113529,-0.0072 2.593255,-0.374498 3.288279,-0.814836 0.88377,-0.559934 2.155911,0.211191 4.231464,2.564958 1.632282,1.851065 3.859112,4.91749197 4.948513,6.81426797 l 1.980728,3.44870703 -2.376383,4.251818 c -1.30701,2.3384912 -3.327906,4.8752602 -4.490879,5.6372692 -1.162971,0.762009 -3.515182,1.578656 -5.227131,1.81476 z M 84.89596,11.841424 c 1.345797,0 3.44942,-1.017026 4.709085,-2.2767072 1.477719,-1.477713 2.276707,-3.328431 2.276707,-5.273599 0,-1.800427 -0.805187,-3.85400103 -2.016779,-5.14368303 -1.157777,-1.23239097 -3.100805,-2.14676397 -4.561874,-2.14676397 -1.399802,0 -3.220765,0.259278 -4.046584,0.57618 -0.825818,0.316888 -2.112143,1.75704997 -2.858501,3.20035697 -0.74636,1.44329203 -1.357016,3.30309603 -1.357016,4.13290303 0,0.829807 1.220081,2.728815 2.711291,4.220021 1.618149,1.6181492 3.691981,2.7112922 5.143671,2.7112922 z M 31.389093,-23.425729 c -1.674376,-0.01116 -4.755197,-0.797357 -6.846271,-1.747006 -2.091073,-0.949648 -4.652677,-2.92312 -5.692454,-4.38548 -1.039777,-1.462363 -2.394767,-4.344918 -3.01109,-6.405678 -0.852051,-2.848951 -0.867792,-4.685634 -0.06568,-7.664441 0.580196,-2.154684 2.287606,-5.32158 3.794244,-7.037542 1.506637,-1.715971 3.889102,-3.53272 5.294365,-4.037232 1.405262,-0.504501 4.433305,-1.362362 6.728984,-1.906341 3.711224,-0.879399 4.397298,-0.780002 6.188483,0.896605 1.107986,1.037108 3.090323,1.947876 4.405194,2.023925 1.626954,0.09412 2.390882,0.668633 2.391328,1.79844 3.6e-4,0.913086 0.829484,3.284797 1.842494,5.270462 1.013014,1.985665 2.256653,3.866674 2.763647,4.18001 0.601314,0.37163 0.608294,1.119113 0.02007,2.149913 -0.495952,0.869112 -1.579919,3.45849 -2.408813,5.754169 -0.828893,2.295679 -1.562405,5.113104 -1.630026,6.260943 -0.08671,1.471909 -0.70464,2.086975 -2.096652,2.086975 -1.085537,0 -3.47216,0.626094 -5.303604,1.39132 -1.831445,0.765227 -4.699844,1.382161 -6.374219,1.370958 z m 0.107378,-4.620835 c 1.837624,-0.0019 4.677408,-0.818236 6.310631,-1.814078 1.633224,-0.995834 3.661703,-3.149181 4.507731,-4.785216 1.020854,-1.974117 1.372995,-4.206565 1.046959,-6.63735 -0.30219,-2.252993 -1.481359,-4.696153 -3.063684,-6.347743 -1.414824,-1.476756 -3.952672,-3.066127 -5.639663,-3.531922 -1.880547,-0.519241 -4.300213,-0.506479 -6.25405,0.03302 -1.752738,0.483956 -4.257237,2.152066 -5.565554,3.706913 -1.308317,1.554847 -2.652067,3.915945 -2.986112,5.246883 -0.335223,1.33564 -0.02341,4.095333 0.695931,6.159219 0.817015,2.344143 2.479219,4.529277 4.454982,5.856541 1.834762,1.232543 4.547788,2.115772 6.492829,2.113751 z m 127.300549,1.858557 c -0.98366,0 -2.01549,-0.591544 -2.29294,-1.314551 -0.27744,-0.723004 0.089,-1.54226 0.81417,-1.820552 0.74159,-0.284581 1.74496,0.290664 2.29294,1.314556 0.81157,1.516456 0.67559,1.820547 -0.81417,1.820547 z m 106.6893,-18.770495 c -3.13663,-0.134321 -5.70646,-0.639173 -5.71075,-1.121906 -0.004,-0.482732 -1.0869,-2.434857 -2.40581,-4.338062 -1.31893,-1.903198 -2.62744,-5.170631 -2.90782,-7.260959 -0.28036,-2.090321 -0.84388,-4.007088 -1.25226,-4.259474 -0.40837,-0.252394 0.27405,-1.47543 1.51648,-2.717869 1.24245,-1.242441 2.25899,-3.235341 2.25899,-4.428677 0,-1.896935 0.70147,-2.325314 5.57983,-3.407576 3.06889,-0.680837 7.03812,-1.001231 8.82051,-0.711994 1.78237,0.289247 4.44143,1.380905 5.90901,2.425915 1.46758,1.045004 3.34189,3.583431 4.16515,5.640935 0.82324,2.057502 1.49681,4.852878 1.49681,6.211939 0,1.359061 -0.85988,4.247304 -1.91084,6.418311 -1.39105,2.873541 -2.99152,4.470425 -5.88359,5.870454 -2.96043,1.433116 -5.42597,1.860948 -9.67571,1.678963 z m 2.62541,-4.418176 c 1.63029,0 4.15871,-0.70564 5.61871,-1.568083 1.46002,-0.862452 3.14316,-2.747626 3.74031,-4.189285 0.59715,-1.441659 0.83679,-4.179536 0.53251,-6.08418 -0.35616,-2.229499 -1.47226,-4.2047 -3.1334,-5.545349 -1.72368,-1.391127 -3.8118,-2.077057 -6.29038,-2.066362 -2.11228,0.0093 -4.56225,0.706215 -5.6886,1.618607 -1.08814,0.881419 -2.44468,2.514283 -3.01453,3.628582 -0.56986,1.1143 -1.03611,3.34737 -1.03611,4.962377 0,2.102675 0.89539,3.831762 3.15366,6.090032 2.27072,2.270729 3.98354,3.153661 6.11783,3.153661 z m -51.01111,-19.569991 c -0.25508,-0.0347 -1.11775,-0.786643 -1.91708,-1.670985 -1.02836,-1.137748 -1.18794,-2.028583 -0.54581,-3.046612 0.78069,-1.237644 1.19905,-1.099811 2.99336,0.986195 1.46539,1.703626 1.76569,2.628605 1.00955,3.109705 -0.59192,0.376639 -1.28495,0.656406 -1.54002,0.621697 z M 37.852132,-78.619733 c -0.9719,0.411683 -1.623208,0.283144 -1.623208,-0.320365 0,-0.55436 -1.565236,-1.812979 -3.478302,-2.796929 -1.913065,-0.983949 -4.603999,-2.975063 -5.979851,-4.424699 -1.375852,-1.449638 -3.149786,-4.187532 -3.942075,-6.084212 -0.792289,-1.896681 -1.440526,-5.353607 -1.440526,-7.682056 0,-2.328446 0.648237,-5.785376 1.440526,-7.682056 0.792289,-1.89668 2.566223,-4.63457 3.942075,-6.08421 1.375852,-1.44964 4.136739,-3.47644 6.135303,-4.50401 2.821734,-1.4508 4.922141,-1.78626 9.399233,-1.50118 4.508514,0.28708 6.625466,0.96569 9.710092,3.11268 2.169538,1.51007 4.649164,3.12599 5.51028,3.59094 1.020464,0.55099 1.930454,2.97344 2.613238,6.9566 0.784432,4.57615 0.778086,7.683929 -0.02526,12.372179 -0.611149,3.566573 -1.541638,6.260943 -2.162192,6.260943 -0.599143,0 -1.634281,0.656601 -2.300306,1.459113 -0.666027,0.802513 -2.908465,2.336316 -4.983197,3.408453 -2.074731,1.072137 -5.441824,2.237767 -7.482428,2.59029 -2.040604,0.352523 -4.440632,0.950358 -5.333396,1.328519 z m 3.028999,-6.007201 c 2.303639,0.0019 5.642808,-0.769388 7.420377,-1.713989 1.777569,-0.944601 4.160923,-3.078227 5.29634,-4.741392 1.13542,-1.663164 2.337264,-4.478439 2.670768,-6.256166 0.333504,-1.777726 0.135147,-4.805039 -0.440795,-6.727359 -0.575942,-1.92232 -1.918989,-4.60347 -2.984552,-5.95811 -1.065565,-1.35465 -3.199258,-3.11553 -4.741542,-3.91308 -1.542284,-0.79754 -4.584351,-1.45008 -6.760144,-1.45008 -2.175795,0 -5.625305,0.85162 -7.66558,1.89249 -2.085713,1.06405 -4.641672,3.43258 -5.838847,5.41069 -1.51747,2.50734 -2.120532,4.91037 -2.098888,8.363508 0.024,3.829665 0.565918,5.547451 2.585307,8.195008 1.405219,1.842335 3.863132,4.147395 5.462032,5.122356 1.725216,1.051985 4.609895,1.774067 7.095524,1.776124 z m 28.838727,6.496296 c -0.965721,0 -2.009212,-0.660228 -2.318868,-1.467181 -0.309655,-0.806951 -0.563011,-1.593084 -0.563011,-1.746964 0,-0.15388 1.043491,-0.479256 2.318868,-0.72306 1.94393,-0.371606 2.318868,-0.08913 2.318868,1.746964 0,1.530616 -0.528805,2.190241 -1.755857,2.190241 z M 117.715,-111.08251 c -0.84116,0.33781 -1.77139,0.22261 -2.06718,-0.25598 -0.29579,-0.4786 -2.80358,-2.01656 -5.57287,-3.41769 -2.76928,-1.40113 -5.43097,-2.30283 -5.91486,-2.00377 -0.50085,0.30954 -0.69509,-0.42248 -0.45096,-1.69955 0.30091,-1.57412 -0.27354,-2.89423 -1.92578,-4.42547 -1.68007,-1.55704 -2.111092,-2.5671 -1.50457,-3.52581 0.46752,-0.73899 0.85642,-3.09039 0.86424,-5.22531 0.008,-2.13494 0.45815,-5.05671 1.00076,-6.49284 0.5426,-1.43613 2.10784,-3.81161 3.4783,-5.27885 1.37046,-1.46725 4.16133,-3.44071 6.20193,-4.38549 2.04061,-0.94477 5.37978,-1.71776 7.42038,-1.71776 2.0406,0 5.38335,0.76011 7.42834,1.68912 2.04498,0.92901 5.03112,3.18453 6.63588,5.01225 1.60476,1.82772 3.21287,4.71066 3.57357,6.40654 0.36072,1.69589 1.24601,3.75403 1.96733,4.57365 1.13342,1.28787 1.1194,1.64963 -0.10323,2.66432 -0.7781,0.64576 -1.4001,1.64475 -1.38222,2.21998 0.0179,0.57522 -1.12996,3.40406 -2.55076,6.28631 -1.51062,3.06449 -3.35354,5.45067 -4.43835,5.74673 -1.0203,0.27846 -3.94207,1.11585 -6.49283,1.86087 -2.55075,0.74501 -5.32595,1.63095 -6.16712,1.96875 z m 1.52939,-6.0051 c 3.44019,0 5.56023,-0.60433 8.04626,-2.29363 2.20829,-1.50058 3.92458,-3.73172 4.96378,-6.45282 1.04972,-2.74865 1.38106,-5.26449 0.97699,-7.41831 -0.33627,-1.79252 -1.68801,-4.53859 -3.00386,-6.10238 -1.31585,-1.5638 -3.57418,-3.45438 -5.01854,-4.20127 -1.44435,-0.74691 -4.25468,-1.35801 -6.24517,-1.35801 -2.22619,0 -4.79926,0.80322 -6.6855,2.08698 -1.68652,1.14784 -3.84613,3.14027 -4.79912,4.4276 -0.95299,1.28733 -1.98744,3.91038 -2.29878,5.82898 -0.39045,2.40601 -0.0389,4.65755 1.13312,7.25655 0.93456,2.07249 3.17538,4.77125 4.97958,5.99724 2.39044,1.62434 4.54752,2.22907 7.95124,2.22907 z m 90.24079,4.63773 c -0.1988,0 -0.82394,-0.46248 -1.3892,-1.02773 -0.56663,-0.56663 -2.9387,-0.87575 -5.28702,-0.68898 -2.34259,0.18632 -4.25928,-0.0266 -4.25928,-0.47302 0,-0.44648 -1.24616,-2.23108 -2.76924,-3.96577 -1.52308,-1.7347 -3.04004,-4.29418 -3.371,-5.68774 -0.33097,-1.39356 -1.19897,-3.22274 -1.92892,-4.06486 -0.86538,-0.99838 -0.99259,-1.7379 -0.36561,-2.1254 0.52886,-0.32685 1.75563,-2.38938 2.72615,-4.58341 0.97052,-2.19401 3.1227,-4.9562 4.78265,-6.13817 1.74182,-1.24029 4.87393,-2.32739 7.40675,-2.57076 2.9875,-0.28706 5.47269,0.0928 7.78392,1.18944 1.86737,0.88614 4.29728,2.87797 5.3998,4.42633 1.22278,1.71724 2.16223,4.71607 2.40878,7.68914 0.27573,3.32501 -0.0723,5.82922 -1.0953,7.87977 -0.82472,1.65319 -1.49978,3.67211 -1.50015,4.4865 -4.2e-4,0.95627 -0.89269,1.53249 -2.51924,1.62694 -1.38522,0.0804 -3.22575,1.01957 -4.09009,2.08698 -0.86433,1.06741 -1.73418,1.94074 -1.933,1.94074 z m -3.05135,-6.53343 c 1.53045,0.0185 4.09615,-0.76726 5.70154,-1.74617 1.76598,-1.07683 3.35146,-3.09049 4.01401,-5.09805 0.8308,-2.51733 0.83767,-4.09823 0.0284,-6.55011 -0.58664,-1.77755 -2.13618,-4.07323 -3.44343,-5.10151 -1.51419,-1.19107 -3.77136,-1.8696 -6.21929,-1.8696 -2.11337,0 -4.77255,0.65144 -5.90927,1.44762 -1.13673,0.7962 -2.69048,2.65376 -3.4528,4.12791 -0.76231,1.47415 -1.38603,3.55652 -1.38603,4.62749 0,1.07097 0.63134,3.1681 1.40298,4.66029 0.77164,1.49218 2.54558,3.33303 3.94207,4.09076 1.39651,0.75773 3.79129,1.39285 5.32174,1.41137 z"
       id="path169"
       inkscape:connector-curvature="0" />
    <g
       style="display:inline"
       transform="matrix(0.32313075,0,0,-0.32313075,-43.474466,265.67086)"
       inkscape:label="logo-arara"
       id="g3363">
      <g
         id="g3365" />
      <g
         id="g3367">
        <g
           clip-path="url(#clipPath3371)"
           id="g3369">
          <g
             id="g3375" />
          <g
             id="g3549">
            <g
               id="g3551"
               clip-path="url(#clipPath3377)">
              <g
                 id="g3553" />
              <g
                 id="g3555">
                <g
                   id="g3557"
                   clip-path="url(#clipPath3381)">
                  <g
                     id="g3559"
                     clip-path="url(#clipPath3385)">
                    <g
                       id="g3561">
                      <path
                         inkscape:connector-curvature="0"
                         id="path3563"
                         style="fill:url(#linearGradient3389);stroke:none"
                         d="M 0,0 H 1191 V 842 H 0 Z" />
                    </g>
                  </g>
                </g>
              </g>
              <g
                 id="g3565">
                <g
                   id="g3567"
                   clip-path="url(#clipPath3395)">
                  <g
                     id="g3569"
                     clip-path="url(#clipPath3399)">
                    <g
                       id="g3571">
                      <path
                         inkscape:connector-curvature="0"
                         id="path3573"
                         style="fill:url(#linearGradient3403);stroke:none"
                         d="M 0,0 H 1191 V 842 H 0 Z" />
                    </g>
                  </g>
                </g>
              </g>
              <g
                 id="g3575">
                <g
                   id="g3577"
                   clip-path="url(#clipPath3409)">
                  <g
                     id="g3579"
                     clip-path="url(#clipPath3413)">
                    <g
                       id="g3581">
                      <path
                         inkscape:connector-curvature="0"
                         id="path3583"
                         style="fill:url(#linearGradient3417);stroke:none"
                         d="M 0,0 H 1191 V 842 H 0 Z" />
                    </g>
                  </g>
                </g>
              </g>
              <g
                 id="g3585">
                <g
                   id="g3587"
                   clip-path="url(#clipPath3423)">
                  <g
                     id="g3589"
                     clip-path="url(#clipPath3427)">
                    <g
                       id="g3591" />
                    <g
                       id="g3593">
                      <g
                         style="opacity:0.4"
                         id="g3595"
                         clip-path="url(#clipPath3431)">
                        <g
                           id="g3597" />
                        <g
                           id="g3599">
                          <g
                             id="g3601"
                             clip-path="url(#clipPath3435)">
                            <path
                               inkscape:connector-curvature="0"
                               id="path3603"
                               style="fill:#231f20;fill-opacity:1;fill-rule:nonzero;stroke:none"
                               d="m 601.2783,537.6299 c -8.313,0 -27.179,2.895 -34.977,1.143 49.548,-11.047 98.895,-61.194 98.895,-114.085 l 7.447,-94.317 24.818,4.324 3.866,95.954 c -6.961,57.956 -38.845,106.981 -100.049,106.981" />
                          </g>
                        </g>
                      </g>
                    </g>
                  </g>
                </g>
              </g>
              <g
                 id="g3605">
                <g
                   id="g3607"
                   clip-path="url(#clipPath3439)">
                  <g
                     id="g3609"
                     clip-path="url(#clipPath3443)">
                    <g
                       id="g3611">
                      <path
                         inkscape:connector-curvature="0"
                         id="path3613"
                         style="fill:url(#linearGradient3447);stroke:none"
                         d="M 0,0 H 1191 V 842 H 0 Z" />
                    </g>
                  </g>
                </g>
              </g>
              <g
                 id="g3615">
                <g
                   id="g3617"
                   clip-path="url(#clipPath3453)">
                  <g
                     id="g3619"
                     clip-path="url(#clipPath3457)">
                    <g
                       id="g3621">
                      <path
                         inkscape:connector-curvature="0"
                         id="path3623"
                         style="fill:url(#linearGradient3461);stroke:none"
                         d="M 0,0 H 1191 V 842 H 0 Z" />
                    </g>
                  </g>
                </g>
              </g>
              <g
                 id="g3625">
                <g
                   id="g3627"
                   clip-path="url(#clipPath3467)">
                  <g
                     id="g3629"
                     clip-path="url(#clipPath3471)">
                    <g
                       id="g3631" />
                    <g
                       id="g3633">
                      <g
                         style="opacity:0.4"
                         id="g3635"
                         clip-path="url(#clipPath3475)">
                        <g
                           id="g3637" />
                        <g
                           id="g3639">
                          <g
                             id="g3641"
                             clip-path="url(#clipPath3479)">
                            <path
                               inkscape:connector-curvature="0"
                               id="path3643"
                               style="fill:#231f20;fill-opacity:1;fill-rule:nonzero;stroke:none"
                               d="m 901.1279,537.6299 c -8.313,0 -27.169,2.895 -34.959,1.143 49.539,-11.038 98.897,-61.194 98.897,-114.085 l 7.437,-94.317 24.836,4.343 3.8561,95.935 c -6.9701,57.956 -38.8441,106.981 -100.0671,106.981" />
                          </g>
                        </g>
                      </g>
                    </g>
                  </g>
                </g>
              </g>
              <g
                 id="g3645">
                <g
                   id="g3647"
                   clip-path="url(#clipPath3483)">
                  <g
                     id="g3649"
                     clip-path="url(#clipPath3487)">
                    <g
                       id="g3651">
                      <path
                         inkscape:connector-curvature="0"
                         id="path3653"
                         style="fill:url(#linearGradient3491);stroke:none"
                         d="M 0,0 H 1191 V 842 H 0 Z" />
                    </g>
                  </g>
                </g>
              </g>
              <g
                 id="g3655">
                <g
                   id="g3657"
                   clip-path="url(#clipPath3497)">
                  <g
                     id="g3659"
                     clip-path="url(#clipPath3501)">
                    <g
                       id="g3661">
                      <path
                         inkscape:connector-curvature="0"
                         id="path3663"
                         style="fill:url(#linearGradient3505);stroke:none"
                         d="M 0,0 H 1191 V 842 H 0 Z" />
                    </g>
                  </g>
                </g>
              </g>
              <g
                 id="g3665">
                <g
                   id="g3667"
                   clip-path="url(#clipPath3511)">
                  <g
                     id="g3669"
                     clip-path="url(#clipPath3515)">
                    <path
                       inkscape:connector-curvature="0"
                       id="path3671"
                       style="fill:#3974b5;fill-opacity:1;fill-rule:nonzero;stroke:none"
                       d="m 272.8887,465.8643 56.842,-32.816 -56.842,-32.797 z" />
                    <path
                       inkscape:connector-curvature="0"
                       id="path3673"
                       style="fill:#87d5b6;fill-opacity:1;fill-rule:nonzero;stroke:none"
                       d="m 272.8887,465.8643 16.923,-32.759 -16.923,-32.854 z" />
                    <path
                       inkscape:connector-curvature="0"
                       id="path3675"
                       style="fill:#5ec3be;fill-opacity:1;fill-rule:nonzero;stroke:none"
                       d="m 329.731,433.0479 -39.919,0.058 -16.923,32.758 z" />
                  </g>
                </g>
              </g>
              <g
                 id="g3677">
                <g
                   id="g3679"
                   clip-path="url(#clipPath3519)">
                  <g
                     id="g3681"
                     clip-path="url(#clipPath3523)">
                    <g
                       id="g3683" />
                    <g
                       id="g3685">
                      <g
                         style="opacity:0.4"
                         id="g3687"
                         clip-path="url(#clipPath3527)">
                        <g
                           id="g3689" />
                        <g
                           id="g3691">
                          <g
                             id="g3693"
                             clip-path="url(#clipPath3531)">
                            <path
                               inkscape:connector-curvature="0"
                               id="path3695"
                               style="fill:#231f20;fill-opacity:1;fill-rule:nonzero;stroke:none"
                               d="m 302.2476,537.6299 c -8.322,0 -27.188,2.895 -34.977,1.143 49.558,-11.038 98.897,-61.194 98.897,-114.085 l 7.436,-94.317 24.836,4.343 3.857,95.935 c -6.98,57.956 -38.844,106.981 -100.049,106.981" />
                          </g>
                        </g>
                      </g>
                    </g>
                  </g>
                </g>
              </g>
              <g
                 id="g3697">
                <g
                   id="g3699"
                   clip-path="url(#clipPath3535)">
                  <g
                     id="g3701"
                     clip-path="url(#clipPath3539)">
                    <g
                       id="g3703">
                      <path
                         inkscape:connector-curvature="0"
                         id="path3705"
                         style="fill:url(#linearGradient3543);stroke:none"
                         d="M 0,0 H 1191 V 842 H 0 Z" />
                    </g>
                  </g>
                </g>
              </g>
            </g>
          </g>
        </g>
      </g>
    </g>
  </g>
</svg>
